<mxfile host="app.diagrams.net" modified="2022-05-14T16:37:33.883Z" agent="5.0 (X11; Linux x86_64) AppleWebKit/537.36 (KHTML, like Gecko) Chrome/98.0.4758.80 Safari/537.36" etag="qf0kDOir8TodYziwezO4" version="18.0.3" type="github" pages="4">
  <diagram id="jApyYVyt4Udr0EsSBP02" name="Requirements and Assumptions">
    <mxGraphModel dx="1559" dy="986" grid="1" gridSize="10" guides="1" tooltips="1" connect="1" arrows="1" fold="1" page="1" pageScale="1" pageWidth="1100" pageHeight="850" math="0" shadow="0">
      <root>
        <mxCell id="0" />
        <mxCell id="1" parent="0" />
        <mxCell id="baYjomSHSM_FDcd-nVYS-2" value="&lt;u&gt;Assumptions&lt;/u&gt;:&amp;nbsp;&lt;br&gt;&lt;div style=&quot;&quot;&gt;&lt;span style=&quot;background-color: initial;&quot;&gt;-&amp;nbsp;&lt;/span&gt;&lt;span style=&quot;background-color: initial;&quot;&gt;a perimeterized, segmented network&lt;/span&gt;&lt;/div&gt;&lt;div style=&quot;&quot;&gt;&lt;span style=&quot;background-color: initial;&quot;&gt;- the SMTP Gateway is an enterprise&amp;nbsp;Secure Mail Gateway service hosted within the network&lt;/span&gt;&lt;/div&gt;&lt;div style=&quot;&quot;&gt;&lt;span style=&quot;background-color: initial;&quot;&gt;- The MS Exchange and Linux email servers are hosted on-premise&lt;/span&gt;&lt;/div&gt;&lt;div style=&quot;&quot;&gt;&lt;span style=&quot;background-color: initial;&quot;&gt;- Corporate user and developers access their corporate emails through MS Exchange or Webmail&lt;/span&gt;&lt;/div&gt;&lt;div style=&quot;&quot;&gt;&lt;span style=&quot;background-color: initial;&quot;&gt;- Developers have access to a Linux-based&amp;nbsp;&lt;i&gt;&lt;b&gt;development&lt;/b&gt;&lt;/i&gt; &lt;i&gt;&lt;b&gt;environment&lt;/b&gt;&lt;/i&gt; in which their applications can send out emails without interfering with the production corporate email setup.&amp;nbsp;&lt;/span&gt;&lt;/div&gt;&lt;div style=&quot;&quot;&gt;&lt;span style=&quot;background-color: initial;&quot;&gt;- Corporate users connect to MS Exchange locally&amp;nbsp;&lt;/span&gt;&lt;/div&gt;" style="text;html=1;strokeColor=none;fillColor=none;align=left;verticalAlign=middle;whiteSpace=wrap;rounded=0;fontSize=26;" parent="1" vertex="1">
          <mxGeometry x="110" y="470" width="920" height="30" as="geometry" />
        </mxCell>
        <mxCell id="EwzuFjVHpDKlOVMrmXMl-2" value="&lt;u&gt;Requirements&lt;/u&gt;:&amp;nbsp;&lt;br&gt;-&amp;nbsp;the gateway will act as the gateway to the public Internet for Corporate users and Developers.&lt;br&gt;&lt;div style=&quot;&quot;&gt;&lt;span style=&quot;background-color: initial;&quot;&gt;- the solution must provide trusted and secure communication&lt;/span&gt;&lt;/div&gt;&lt;div style=&quot;&quot;&gt;&lt;span style=&quot;background-color: initial;&quot;&gt;- the development environment is Linux-based&lt;/span&gt;&lt;/div&gt;" style="text;html=1;strokeColor=none;fillColor=none;align=left;verticalAlign=middle;whiteSpace=wrap;rounded=0;fontSize=26;" parent="1" vertex="1">
          <mxGeometry x="110" y="190" width="970" height="30" as="geometry" />
        </mxCell>
        <mxCell id="EwzuFjVHpDKlOVMrmXMl-4" value="SMTP Gateway Design" style="text;html=1;strokeColor=none;fillColor=none;align=left;verticalAlign=middle;whiteSpace=wrap;rounded=0;fontSize=26;fontStyle=1" parent="1" vertex="1">
          <mxGeometry x="110" y="50" width="385" height="30" as="geometry" />
        </mxCell>
      </root>
    </mxGraphModel>
  </diagram>
  <diagram name="high level" id="e3a06f82-3646-2815-327d-82caf3d4e204">
    <mxGraphModel dx="5066" dy="986" grid="1" gridSize="10" guides="1" tooltips="1" connect="1" arrows="1" fold="1" page="1" pageScale="1.5" pageWidth="1169" pageHeight="826" background="none" math="0" shadow="0">
      <root>
        <mxCell id="0" style=";html=1;" />
        <mxCell id="1" style=";html=1;" parent="0" />
        <mxCell id="MS2HTz0OU2uAcDuZDVn_-14" style="edgeStyle=orthogonalEdgeStyle;rounded=0;orthogonalLoop=1;jettySize=auto;html=1;endArrow=none;endFill=0;" parent="1" source="MS2HTz0OU2uAcDuZDVn_-1" target="MS2HTz0OU2uAcDuZDVn_-2" edge="1">
          <mxGeometry relative="1" as="geometry" />
        </mxCell>
        <mxCell id="MS2HTz0OU2uAcDuZDVn_-1" value="" style="verticalLabelPosition=bottom;sketch=0;aspect=fixed;html=1;verticalAlign=top;strokeColor=none;align=center;outlineConnect=0;shape=mxgraph.citrix.laptop_1;" parent="1" vertex="1">
          <mxGeometry x="-3260" y="106.5" width="70.91" height="60" as="geometry" />
        </mxCell>
        <mxCell id="MS2HTz0OU2uAcDuZDVn_-15" style="edgeStyle=orthogonalEdgeStyle;rounded=0;orthogonalLoop=1;jettySize=auto;html=1;endArrow=none;endFill=0;" parent="1" source="MS2HTz0OU2uAcDuZDVn_-2" target="MS2HTz0OU2uAcDuZDVn_-3" edge="1">
          <mxGeometry relative="1" as="geometry" />
        </mxCell>
        <mxCell id="MS2HTz0OU2uAcDuZDVn_-2" value="" style="verticalLabelPosition=bottom;sketch=0;aspect=fixed;html=1;verticalAlign=top;strokeColor=none;align=center;outlineConnect=0;shape=mxgraph.citrix.license_server;" parent="1" vertex="1">
          <mxGeometry x="-3130" y="107.5" width="45.89" height="60" as="geometry" />
        </mxCell>
        <mxCell id="MS2HTz0OU2uAcDuZDVn_-17" style="edgeStyle=orthogonalEdgeStyle;rounded=0;orthogonalLoop=1;jettySize=auto;html=1;endArrow=none;endFill=0;" parent="1" source="MS2HTz0OU2uAcDuZDVn_-3" target="-ZL5isNHjIAiVJMmVZmS-53" edge="1">
          <mxGeometry relative="1" as="geometry">
            <mxPoint x="-2631" y="136.5" as="targetPoint" />
          </mxGeometry>
        </mxCell>
        <mxCell id="MS2HTz0OU2uAcDuZDVn_-18" style="edgeStyle=orthogonalEdgeStyle;rounded=0;orthogonalLoop=1;jettySize=auto;html=1;endArrow=none;endFill=0;" parent="1" source="MS2HTz0OU2uAcDuZDVn_-3" edge="1">
          <mxGeometry relative="1" as="geometry">
            <mxPoint x="-2882.5" y="235" as="targetPoint" />
            <Array as="points">
              <mxPoint x="-2850" y="210" />
              <mxPoint x="-2882" y="210" />
            </Array>
          </mxGeometry>
        </mxCell>
        <mxCell id="MS2HTz0OU2uAcDuZDVn_-3" value="" style="verticalLabelPosition=bottom;sketch=0;aspect=fixed;html=1;verticalAlign=top;strokeColor=none;align=center;outlineConnect=0;shape=mxgraph.citrix.cloud;" parent="1" vertex="1">
          <mxGeometry x="-2940" y="90" width="145.56" height="95" as="geometry" />
        </mxCell>
        <mxCell id="MS2HTz0OU2uAcDuZDVn_-30" style="edgeStyle=orthogonalEdgeStyle;rounded=0;orthogonalLoop=1;jettySize=auto;html=1;fontSize=26;endArrow=none;endFill=0;" parent="1" target="MS2HTz0OU2uAcDuZDVn_-29" edge="1" source="MS2HTz0OU2uAcDuZDVn_-10">
          <mxGeometry relative="1" as="geometry">
            <mxPoint x="-2586.5" y="830" as="sourcePoint" />
            <Array as="points">
              <mxPoint x="-2402" y="850" />
            </Array>
          </mxGeometry>
        </mxCell>
        <mxCell id="7H05S1UKiUjH3dwWO2cs-3" value="MAPI" style="edgeLabel;html=1;align=center;verticalAlign=middle;resizable=0;points=[];fontSize=14;fontColor=#000000;" vertex="1" connectable="0" parent="MS2HTz0OU2uAcDuZDVn_-30">
          <mxGeometry x="-0.7567" y="4" relative="1" as="geometry">
            <mxPoint x="-16" y="4" as="offset" />
          </mxGeometry>
        </mxCell>
        <mxCell id="MS2HTz0OU2uAcDuZDVn_-11" value="&lt;font style=&quot;font-size: 16px;&quot;&gt;&lt;b&gt;Secure Email Gateway&lt;/b&gt;&lt;/font&gt;" style="verticalLabelPosition=bottom;sketch=0;aspect=fixed;html=1;verticalAlign=top;strokeColor=none;align=center;outlineConnect=0;shape=mxgraph.citrix.license_server;" parent="1" vertex="1">
          <mxGeometry x="-2724.5" y="328" width="65" height="85" as="geometry" />
        </mxCell>
        <mxCell id="MS2HTz0OU2uAcDuZDVn_-23" value="&lt;font style=&quot;font-size: 26px;&quot;&gt;Internet&lt;/font&gt;" style="text;html=1;strokeColor=none;fillColor=none;align=center;verticalAlign=middle;whiteSpace=wrap;rounded=0;rotation=-40;" parent="1" vertex="1">
          <mxGeometry x="-3450" y="100" width="60" height="40" as="geometry" />
        </mxCell>
        <mxCell id="MS2HTz0OU2uAcDuZDVn_-24" value="&lt;font style=&quot;&quot;&gt;&lt;font style=&quot;font-size: 26px;&quot;&gt;DMZ 1&lt;/font&gt;&lt;br&gt;&lt;/font&gt;" style="text;html=1;strokeColor=none;fillColor=none;align=center;verticalAlign=middle;whiteSpace=wrap;rounded=0;rotation=-40;" parent="1" vertex="1">
          <mxGeometry x="-3460" y="579" width="60" height="40" as="geometry" />
        </mxCell>
        <mxCell id="MS2HTz0OU2uAcDuZDVn_-26" value="&lt;font style=&quot;&quot;&gt;&lt;span style=&quot;font-size: 26px;&quot;&gt;Trusted Zone&lt;/span&gt;&lt;br&gt;&lt;/font&gt;" style="text;html=1;strokeColor=none;fillColor=none;align=center;verticalAlign=middle;whiteSpace=wrap;rounded=0;rotation=-40;" parent="1" vertex="1">
          <mxGeometry x="-3440" y="813" width="60" height="40" as="geometry" />
        </mxCell>
        <mxCell id="7H05S1UKiUjH3dwWO2cs-1" style="edgeStyle=orthogonalEdgeStyle;rounded=0;orthogonalLoop=1;jettySize=auto;html=1;fontSize=16;fontColor=#000000;endArrow=none;endFill=0;strokeWidth=1;" edge="1" parent="1" source="MS2HTz0OU2uAcDuZDVn_-29" target="MS2HTz0OU2uAcDuZDVn_-10">
          <mxGeometry relative="1" as="geometry">
            <Array as="points">
              <mxPoint x="-2402" y="820" />
            </Array>
          </mxGeometry>
        </mxCell>
        <mxCell id="7H05S1UKiUjH3dwWO2cs-2" value="&lt;font style=&quot;font-size: 14px;&quot;&gt;HTTPS&lt;/font&gt;" style="edgeLabel;html=1;align=center;verticalAlign=middle;resizable=0;points=[];fontSize=16;fontColor=#000000;" vertex="1" connectable="0" parent="7H05S1UKiUjH3dwWO2cs-1">
          <mxGeometry x="0.473" y="3" relative="1" as="geometry">
            <mxPoint x="-52" as="offset" />
          </mxGeometry>
        </mxCell>
        <mxCell id="MS2HTz0OU2uAcDuZDVn_-29" value="" style="verticalLabelPosition=bottom;sketch=0;aspect=fixed;html=1;verticalAlign=top;strokeColor=none;align=center;outlineConnect=0;shape=mxgraph.citrix.firewall;fontSize=26;" parent="1" vertex="1">
          <mxGeometry x="-2440" y="650" width="75" height="93" as="geometry" />
        </mxCell>
        <mxCell id="L3Gks-NarPmathB13lwc-9" style="edgeStyle=orthogonalEdgeStyle;rounded=0;orthogonalLoop=1;jettySize=auto;html=1;fontSize=16;fontColor=#000000;endArrow=none;endFill=0;strokeWidth=1;" edge="1" parent="1" source="MS2HTz0OU2uAcDuZDVn_-42" target="MS2HTz0OU2uAcDuZDVn_-29">
          <mxGeometry relative="1" as="geometry">
            <Array as="points">
              <mxPoint x="-2290" y="960" />
              <mxPoint x="-2290" y="697" />
            </Array>
          </mxGeometry>
        </mxCell>
        <mxCell id="MS2HTz0OU2uAcDuZDVn_-42" value="" style="rounded=0;whiteSpace=wrap;html=1;fontSize=26;align=left;fillColor=#d5e8d4;strokeColor=#82b366;" parent="1" vertex="1">
          <mxGeometry x="-2117.4500000000003" y="949.38" width="310" height="60" as="geometry" />
        </mxCell>
        <mxCell id="MS2HTz0OU2uAcDuZDVn_-43" value="" style="verticalLabelPosition=bottom;sketch=0;aspect=fixed;html=1;verticalAlign=top;strokeColor=none;align=center;outlineConnect=0;shape=mxgraph.citrix.laptop_2;fontSize=26;" parent="1" vertex="1">
          <mxGeometry x="-2089.07" y="961.13" width="48.95" height="36.5" as="geometry" />
        </mxCell>
        <mxCell id="MS2HTz0OU2uAcDuZDVn_-44" value="" style="verticalLabelPosition=bottom;sketch=0;aspect=fixed;html=1;verticalAlign=top;strokeColor=none;align=center;outlineConnect=0;shape=mxgraph.citrix.laptop_2;fontSize=26;" parent="1" vertex="1">
          <mxGeometry x="-2019.07" y="962.88" width="48.95" height="36.5" as="geometry" />
        </mxCell>
        <mxCell id="MS2HTz0OU2uAcDuZDVn_-45" value="" style="verticalLabelPosition=bottom;sketch=0;aspect=fixed;html=1;verticalAlign=top;strokeColor=none;align=center;outlineConnect=0;shape=mxgraph.citrix.laptop_2;fontSize=26;" parent="1" vertex="1">
          <mxGeometry x="-1949.07" y="962.88" width="48.95" height="36.5" as="geometry" />
        </mxCell>
        <mxCell id="MS2HTz0OU2uAcDuZDVn_-46" value="" style="verticalLabelPosition=bottom;sketch=0;aspect=fixed;html=1;verticalAlign=top;strokeColor=none;align=center;outlineConnect=0;shape=mxgraph.citrix.laptop_2;fontSize=26;" parent="1" vertex="1">
          <mxGeometry x="-1879.07" y="962.88" width="48.95" height="36.5" as="geometry" />
        </mxCell>
        <mxCell id="MS2HTz0OU2uAcDuZDVn_-48" value="" style="verticalLabelPosition=bottom;sketch=0;aspect=fixed;html=1;verticalAlign=top;strokeColor=none;align=center;outlineConnect=0;shape=mxgraph.citrix.role_repeater;fillColor=#CCCCCC;gradientColor=#000000;gradientDirection=south;fontSize=26;" parent="1" vertex="1">
          <mxGeometry x="-2125.82" y="987.38" width="36.75" height="36.75" as="geometry" />
        </mxCell>
        <mxCell id="L3Gks-NarPmathB13lwc-8" style="edgeStyle=orthogonalEdgeStyle;rounded=0;orthogonalLoop=1;jettySize=auto;html=1;fontSize=16;fontColor=#000000;endArrow=none;endFill=0;strokeWidth=1;" edge="1" parent="1" source="MS2HTz0OU2uAcDuZDVn_-51" target="MS2HTz0OU2uAcDuZDVn_-29">
          <mxGeometry relative="1" as="geometry">
            <Array as="points">
              <mxPoint x="-2130" y="904" />
              <mxPoint x="-2130" y="850" />
              <mxPoint x="-2290" y="850" />
              <mxPoint x="-2290" y="697" />
            </Array>
          </mxGeometry>
        </mxCell>
        <mxCell id="MS2HTz0OU2uAcDuZDVn_-51" value="" style="rounded=0;whiteSpace=wrap;html=1;fontSize=26;align=left;fillColor=#d5e8d4;strokeColor=#82b366;" parent="1" vertex="1">
          <mxGeometry x="-2117.4500000000003" y="874.38" width="310" height="60" as="geometry" />
        </mxCell>
        <mxCell id="MS2HTz0OU2uAcDuZDVn_-52" value="" style="verticalLabelPosition=bottom;sketch=0;aspect=fixed;html=1;verticalAlign=top;strokeColor=none;align=center;outlineConnect=0;shape=mxgraph.citrix.laptop_2;fontSize=26;" parent="1" vertex="1">
          <mxGeometry x="-2097.4500000000003" y="886.13" width="48.95" height="36.5" as="geometry" />
        </mxCell>
        <mxCell id="MS2HTz0OU2uAcDuZDVn_-53" value="" style="verticalLabelPosition=bottom;sketch=0;aspect=fixed;html=1;verticalAlign=top;strokeColor=none;align=center;outlineConnect=0;shape=mxgraph.citrix.laptop_2;fontSize=26;" parent="1" vertex="1">
          <mxGeometry x="-2027.45" y="887.88" width="48.95" height="36.5" as="geometry" />
        </mxCell>
        <mxCell id="MS2HTz0OU2uAcDuZDVn_-54" value="" style="verticalLabelPosition=bottom;sketch=0;aspect=fixed;html=1;verticalAlign=top;strokeColor=none;align=center;outlineConnect=0;shape=mxgraph.citrix.laptop_2;fontSize=26;" parent="1" vertex="1">
          <mxGeometry x="-1957.45" y="887.88" width="48.95" height="36.5" as="geometry" />
        </mxCell>
        <mxCell id="MS2HTz0OU2uAcDuZDVn_-55" value="" style="verticalLabelPosition=bottom;sketch=0;aspect=fixed;html=1;verticalAlign=top;strokeColor=none;align=center;outlineConnect=0;shape=mxgraph.citrix.laptop_2;fontSize=26;" parent="1" vertex="1">
          <mxGeometry x="-1887.45" y="887.88" width="48.95" height="36.5" as="geometry" />
        </mxCell>
        <mxCell id="MS2HTz0OU2uAcDuZDVn_-61" value="Corporate Network" style="verticalLabelPosition=bottom;sketch=0;aspect=fixed;html=1;verticalAlign=top;strokeColor=none;align=center;outlineConnect=0;shape=mxgraph.citrix.site;fontSize=26;" parent="1" vertex="1">
          <mxGeometry x="-1999.53" y="530" width="74.16" height="70" as="geometry" />
        </mxCell>
        <mxCell id="-ZL5isNHjIAiVJMmVZmS-74" style="edgeStyle=orthogonalEdgeStyle;rounded=0;orthogonalLoop=1;jettySize=auto;html=1;fontSize=21;endArrow=none;endFill=0;strokeWidth=1;" parent="1" target="-ZL5isNHjIAiVJMmVZmS-68" edge="1">
          <mxGeometry relative="1" as="geometry">
            <mxPoint x="-2750" y="848.3" as="sourcePoint" />
          </mxGeometry>
        </mxCell>
        <mxCell id="HjmneazlSj1odOkmcWlp-2" style="edgeStyle=orthogonalEdgeStyle;rounded=0;orthogonalLoop=1;jettySize=auto;html=1;fontSize=14;fontColor=#000000;endArrow=none;endFill=0;strokeWidth=1;" parent="1" source="MS2HTz0OU2uAcDuZDVn_-10" target="MS2HTz0OU2uAcDuZDVn_-27" edge="1">
          <mxGeometry relative="1" as="geometry" />
        </mxCell>
        <mxCell id="HjmneazlSj1odOkmcWlp-5" value="SMTPS" style="edgeLabel;html=1;align=center;verticalAlign=middle;resizable=0;points=[];fontSize=14;fontColor=#000000;" parent="HjmneazlSj1odOkmcWlp-2" vertex="1" connectable="0">
          <mxGeometry x="-0.7878" y="1" relative="1" as="geometry">
            <mxPoint as="offset" />
          </mxGeometry>
        </mxCell>
        <mxCell id="MS2HTz0OU2uAcDuZDVn_-10" value="Exchange" style="verticalLabelPosition=bottom;sketch=0;aspect=fixed;html=1;verticalAlign=top;strokeColor=none;align=center;outlineConnect=0;shape=mxgraph.citrix.smtp_server;" parent="1" vertex="1">
          <mxGeometry x="-2700" y="790.5" width="76" height="92" as="geometry" />
        </mxCell>
        <mxCell id="-ZL5isNHjIAiVJMmVZmS-4" value="" style="endArrow=none;dashed=1;html=1;dashPattern=1 3;strokeWidth=4;rounded=0;fontSize=12;fillColor=#d80073;strokeColor=#A50040;" parent="1" edge="1">
          <mxGeometry width="50" height="50" relative="1" as="geometry">
            <mxPoint x="-3470" y="268" as="sourcePoint" />
            <mxPoint x="-2450" y="268" as="targetPoint" />
          </mxGeometry>
        </mxCell>
        <mxCell id="-ZL5isNHjIAiVJMmVZmS-61" style="edgeStyle=orthogonalEdgeStyle;rounded=0;orthogonalLoop=1;jettySize=auto;html=1;fontSize=12;endArrow=none;endFill=0;strokeWidth=1;" parent="1" source="MS2HTz0OU2uAcDuZDVn_-5" target="MS2HTz0OU2uAcDuZDVn_-11" edge="1">
          <mxGeometry relative="1" as="geometry" />
        </mxCell>
        <mxCell id="EidLaiFyTw0n2LER88-Q-2" value="SMTPS" style="edgeLabel;html=1;align=center;verticalAlign=middle;resizable=0;points=[];fontSize=14;fontColor=#000000;" parent="-ZL5isNHjIAiVJMmVZmS-61" vertex="1" connectable="0">
          <mxGeometry x="0.8573" y="-1" relative="1" as="geometry">
            <mxPoint x="-11" y="-1" as="offset" />
          </mxGeometry>
        </mxCell>
        <mxCell id="MS2HTz0OU2uAcDuZDVn_-5" value="Internet Firewall" style="verticalLabelPosition=bottom;sketch=0;aspect=fixed;html=1;verticalAlign=top;strokeColor=none;align=center;outlineConnect=0;shape=mxgraph.citrix.firewall;" parent="1" vertex="1">
          <mxGeometry x="-2910" y="235" width="75" height="93" as="geometry" />
        </mxCell>
        <mxCell id="-ZL5isNHjIAiVJMmVZmS-5" value="" style="endArrow=none;dashed=1;html=1;dashPattern=1 3;strokeWidth=4;rounded=0;fontSize=12;fillColor=#d80073;strokeColor=#A50040;" parent="1" edge="1">
          <mxGeometry width="50" height="50" relative="1" as="geometry">
            <mxPoint x="-3469.5" y="697" as="sourcePoint" />
            <mxPoint x="-2449.5" y="697" as="targetPoint" />
          </mxGeometry>
        </mxCell>
        <mxCell id="HjmneazlSj1odOkmcWlp-4" style="edgeStyle=orthogonalEdgeStyle;rounded=0;orthogonalLoop=1;jettySize=auto;html=1;fontSize=14;fontColor=#000000;endArrow=none;endFill=0;strokeWidth=1;" parent="1" source="MS2HTz0OU2uAcDuZDVn_-27" target="-ZL5isNHjIAiVJMmVZmS-56" edge="1">
          <mxGeometry relative="1" as="geometry" />
        </mxCell>
        <mxCell id="MS2HTz0OU2uAcDuZDVn_-27" value="" style="verticalLabelPosition=bottom;sketch=0;aspect=fixed;html=1;verticalAlign=top;strokeColor=none;align=center;outlineConnect=0;shape=mxgraph.citrix.firewall;" parent="1" vertex="1">
          <mxGeometry x="-2909" y="630" width="75" height="93" as="geometry" />
        </mxCell>
        <mxCell id="-ZL5isNHjIAiVJMmVZmS-6" value="" style="endArrow=none;dashed=1;html=1;dashPattern=1 3;strokeWidth=4;rounded=0;fontSize=12;fillColor=#d80073;strokeColor=#A50040;" parent="1" edge="1">
          <mxGeometry width="50" height="50" relative="1" as="geometry">
            <mxPoint x="-3480" y="960" as="sourcePoint" />
            <mxPoint x="-2450" y="960" as="targetPoint" />
          </mxGeometry>
        </mxCell>
        <mxCell id="-ZL5isNHjIAiVJMmVZmS-53" value="Public DNS" style="verticalLabelPosition=bottom;sketch=0;aspect=fixed;html=1;verticalAlign=top;strokeColor=none;align=center;outlineConnect=0;shape=mxgraph.citrix.dns_server;fontSize=12;" parent="1" vertex="1">
          <mxGeometry x="-2624" y="91.25" width="76.5" height="92.5" as="geometry" />
        </mxCell>
        <mxCell id="-ZL5isNHjIAiVJMmVZmS-54" value="" style="endArrow=none;dashed=1;html=1;dashPattern=1 3;strokeWidth=4;rounded=0;fontSize=12;fillColor=#d80073;strokeColor=#A50040;" parent="1" edge="1">
          <mxGeometry width="50" height="50" relative="1" as="geometry">
            <mxPoint x="-3470" y="483.25" as="sourcePoint" />
            <mxPoint x="-2450" y="483.25" as="targetPoint" />
          </mxGeometry>
        </mxCell>
        <mxCell id="-ZL5isNHjIAiVJMmVZmS-55" value="&lt;font style=&quot;&quot;&gt;&lt;font style=&quot;font-size: 26px;&quot;&gt;DMZ 0&lt;/font&gt;&lt;br&gt;&lt;/font&gt;" style="text;html=1;strokeColor=none;fillColor=none;align=center;verticalAlign=middle;whiteSpace=wrap;rounded=0;rotation=-40;" parent="1" vertex="1">
          <mxGeometry x="-3460" y="352.63" width="60" height="35.75" as="geometry" />
        </mxCell>
        <mxCell id="-ZL5isNHjIAiVJMmVZmS-60" style="edgeStyle=orthogonalEdgeStyle;rounded=0;orthogonalLoop=1;jettySize=auto;html=1;fontSize=12;endArrow=none;endFill=0;strokeWidth=1;" parent="1" source="-ZL5isNHjIAiVJMmVZmS-56" target="MS2HTz0OU2uAcDuZDVn_-11" edge="1">
          <mxGeometry relative="1" as="geometry">
            <Array as="points">
              <mxPoint x="-2872" y="390" />
            </Array>
          </mxGeometry>
        </mxCell>
        <mxCell id="-ZL5isNHjIAiVJMmVZmS-56" value="" style="verticalLabelPosition=bottom;sketch=0;aspect=fixed;html=1;verticalAlign=top;strokeColor=none;align=center;outlineConnect=0;shape=mxgraph.citrix.firewall;" parent="1" vertex="1">
          <mxGeometry x="-2910" y="447.75" width="75" height="93" as="geometry" />
        </mxCell>
        <mxCell id="-ZL5isNHjIAiVJMmVZmS-63" value="&lt;font style=&quot;&quot;&gt;&lt;b style=&quot;&quot;&gt;&lt;font style=&quot;font-size: 21px;&quot;&gt;DMZ 0&lt;/font&gt;&lt;/b&gt;&lt;span style=&quot;font-size: 18px;&quot;&gt;: Security and Content Filtering services, e.g. WAF, Secure Mail Gateway&lt;/span&gt;&lt;br&gt;&lt;font style=&quot;font-size: 21px;&quot;&gt;&lt;b&gt;DMZ 1&lt;/b&gt;&lt;/font&gt;&lt;span style=&quot;font-size: 18px;&quot;&gt;: Authn/Authz Appliances, e.g. Reverse Proxies, IDP&#39;s&lt;/span&gt;&lt;br&gt;&lt;b style=&quot;&quot;&gt;&lt;font style=&quot;font-size: 21px;&quot;&gt;TZ&lt;/font&gt;&lt;/b&gt;&lt;span style=&quot;font-size: 18px;&quot;&gt;: Trusted zone, e.g Web Servers, Mail Servers; strictly authenticated flows; specialized subdivisions are possible.&lt;br&gt;&lt;/span&gt;&lt;font style=&quot;font-size: 21px;&quot;&gt;&lt;b&gt;DZ&lt;/b&gt;&lt;/font&gt;&lt;font style=&quot;font-size: 18px;&quot;&gt;: Data Zone for databases and LDAP services&lt;/font&gt;&lt;br&gt;&lt;/font&gt;" style="text;html=1;strokeColor=none;fillColor=none;align=left;verticalAlign=middle;whiteSpace=wrap;rounded=0;fontSize=12;rotation=0;" parent="1" vertex="1">
          <mxGeometry x="-2350" y="250" width="590" height="30" as="geometry" />
        </mxCell>
        <mxCell id="-ZL5isNHjIAiVJMmVZmS-66" value="&lt;font style=&quot;&quot;&gt;&lt;span style=&quot;font-size: 26px;&quot;&gt;Data Zone&lt;/span&gt;&lt;br&gt;&lt;/font&gt;" style="text;html=1;strokeColor=none;fillColor=none;align=center;verticalAlign=middle;whiteSpace=wrap;rounded=0;rotation=-40;" parent="1" vertex="1">
          <mxGeometry x="-3440" y="1090" width="60" height="40" as="geometry" />
        </mxCell>
        <mxCell id="-ZL5isNHjIAiVJMmVZmS-75" style="edgeStyle=orthogonalEdgeStyle;rounded=0;orthogonalLoop=1;jettySize=auto;html=1;fontSize=21;endArrow=none;endFill=0;strokeWidth=1;" parent="1" source="-ZL5isNHjIAiVJMmVZmS-68" target="-ZL5isNHjIAiVJMmVZmS-77" edge="1">
          <mxGeometry relative="1" as="geometry">
            <mxPoint x="-2630" y="1080" as="targetPoint" />
            <Array as="points">
              <mxPoint x="-2861" y="1030" />
              <mxPoint x="-2720" y="1030" />
            </Array>
          </mxGeometry>
        </mxCell>
        <mxCell id="HjmneazlSj1odOkmcWlp-6" value="3569" style="edgeLabel;html=1;align=center;verticalAlign=middle;resizable=0;points=[];fontSize=14;fontColor=#000000;" parent="-ZL5isNHjIAiVJMmVZmS-75" vertex="1" connectable="0">
          <mxGeometry x="0.1728" y="3" relative="1" as="geometry">
            <mxPoint x="44" y="33" as="offset" />
          </mxGeometry>
        </mxCell>
        <mxCell id="-ZL5isNHjIAiVJMmVZmS-68" value="" style="verticalLabelPosition=bottom;sketch=0;aspect=fixed;html=1;verticalAlign=top;strokeColor=none;align=center;outlineConnect=0;shape=mxgraph.citrix.firewall;" parent="1" vertex="1">
          <mxGeometry x="-2899" y="902.75" width="75" height="93" as="geometry" />
        </mxCell>
        <mxCell id="-ZL5isNHjIAiVJMmVZmS-77" value="AD" style="verticalLabelPosition=bottom;sketch=0;aspect=fixed;html=1;verticalAlign=top;strokeColor=none;align=center;outlineConnect=0;shape=mxgraph.citrix.database_server;fontSize=21;" parent="1" vertex="1">
          <mxGeometry x="-2732" y="1070" width="80" height="90" as="geometry" />
        </mxCell>
        <mxCell id="-ZL5isNHjIAiVJMmVZmS-80" value="Production" style="text;html=1;strokeColor=none;fillColor=none;align=center;verticalAlign=middle;whiteSpace=wrap;rounded=0;fontSize=45;fontColor=#FF0000;" parent="1" vertex="1">
          <mxGeometry x="-2140" y="40" width="60" height="30" as="geometry" />
        </mxCell>
        <mxCell id="qslBiHPvFCz3kHwW0v_K-1" value="" style="verticalLabelPosition=bottom;sketch=0;aspect=fixed;html=1;verticalAlign=top;strokeColor=none;align=center;outlineConnect=0;shape=mxgraph.citrix.firewall;fontSize=26;" parent="1" vertex="1">
          <mxGeometry x="-2440" y="437" width="75" height="93" as="geometry" />
        </mxCell>
        <mxCell id="yor0srDy2hJoe93dbZHR-1" value="" style="verticalLabelPosition=bottom;sketch=0;aspect=fixed;html=1;verticalAlign=top;strokeColor=none;align=center;outlineConnect=0;shape=mxgraph.citrix.firewall;fontSize=26;" parent="1" vertex="1">
          <mxGeometry x="-2440" y="920" width="75" height="93" as="geometry" />
        </mxCell>
        <mxCell id="L3Gks-NarPmathB13lwc-7" style="edgeStyle=orthogonalEdgeStyle;rounded=0;orthogonalLoop=1;jettySize=auto;html=1;fontSize=16;fontColor=#000000;endArrow=none;endFill=0;strokeWidth=1;" edge="1" parent="1" source="L3Gks-NarPmathB13lwc-2">
          <mxGeometry relative="1" as="geometry">
            <mxPoint x="-2360" y="700" as="targetPoint" />
            <Array as="points">
              <mxPoint x="-2290" y="773" />
              <mxPoint x="-2290" y="700" />
            </Array>
          </mxGeometry>
        </mxCell>
        <mxCell id="L3Gks-NarPmathB13lwc-2" value="" style="rounded=0;whiteSpace=wrap;html=1;fontSize=26;align=left;fillColor=#d5e8d4;strokeColor=#82b366;" vertex="1" parent="1">
          <mxGeometry x="-2121.63" y="743" width="310" height="60" as="geometry" />
        </mxCell>
        <mxCell id="L3Gks-NarPmathB13lwc-3" value="" style="verticalLabelPosition=bottom;sketch=0;aspect=fixed;html=1;verticalAlign=top;strokeColor=none;align=center;outlineConnect=0;shape=mxgraph.citrix.laptop_2;fontSize=26;" vertex="1" parent="1">
          <mxGeometry x="-2101.63" y="754.75" width="48.95" height="36.5" as="geometry" />
        </mxCell>
        <mxCell id="L3Gks-NarPmathB13lwc-4" value="" style="verticalLabelPosition=bottom;sketch=0;aspect=fixed;html=1;verticalAlign=top;strokeColor=none;align=center;outlineConnect=0;shape=mxgraph.citrix.laptop_2;fontSize=26;" vertex="1" parent="1">
          <mxGeometry x="-2031.63" y="756.5" width="48.95" height="36.5" as="geometry" />
        </mxCell>
        <mxCell id="L3Gks-NarPmathB13lwc-5" value="" style="verticalLabelPosition=bottom;sketch=0;aspect=fixed;html=1;verticalAlign=top;strokeColor=none;align=center;outlineConnect=0;shape=mxgraph.citrix.laptop_2;fontSize=26;" vertex="1" parent="1">
          <mxGeometry x="-1961.63" y="756.5" width="48.95" height="36.5" as="geometry" />
        </mxCell>
        <mxCell id="L3Gks-NarPmathB13lwc-6" value="" style="verticalLabelPosition=bottom;sketch=0;aspect=fixed;html=1;verticalAlign=top;strokeColor=none;align=center;outlineConnect=0;shape=mxgraph.citrix.laptop_2;fontSize=26;" vertex="1" parent="1">
          <mxGeometry x="-1891.63" y="756.5" width="48.95" height="36.5" as="geometry" />
        </mxCell>
        <mxCell id="L3Gks-NarPmathB13lwc-10" value="Developers" style="text;html=1;strokeColor=none;fillColor=none;align=center;verticalAlign=middle;whiteSpace=wrap;rounded=0;fontSize=16;fontColor=#000000;" vertex="1" parent="1">
          <mxGeometry x="-1871.63" y="713" width="60" height="30" as="geometry" />
        </mxCell>
        <mxCell id="SHzqYnsoDPhj9tm4-5ee-2" value="Corporate" style="text;html=1;strokeColor=none;fillColor=none;align=center;verticalAlign=middle;whiteSpace=wrap;rounded=0;fontSize=16;fontColor=#000000;" vertex="1" parent="1">
          <mxGeometry x="-1879.0700000000002" y="844.38" width="60" height="30" as="geometry" />
        </mxCell>
      </root>
    </mxGraphModel>
  </diagram>
  <diagram name="high level (DEV)" id="sB-gzQ24y7XR0osAuDt7">
    <mxGraphModel dx="5066" dy="986" grid="1" gridSize="10" guides="1" tooltips="1" connect="1" arrows="1" fold="1" page="1" pageScale="1.5" pageWidth="1169" pageHeight="826" background="none" math="0" shadow="0">
      <root>
        <mxCell id="ZP6E8Msi36bvybZyYE74-0" style=";html=1;" />
        <mxCell id="ZP6E8Msi36bvybZyYE74-1" style=";html=1;" parent="ZP6E8Msi36bvybZyYE74-0" />
        <mxCell id="ZP6E8Msi36bvybZyYE74-2" style="edgeStyle=orthogonalEdgeStyle;rounded=0;orthogonalLoop=1;jettySize=auto;html=1;endArrow=none;endFill=0;" parent="ZP6E8Msi36bvybZyYE74-1" source="ZP6E8Msi36bvybZyYE74-3" target="ZP6E8Msi36bvybZyYE74-5" edge="1">
          <mxGeometry relative="1" as="geometry" />
        </mxCell>
        <mxCell id="ZP6E8Msi36bvybZyYE74-3" value="" style="verticalLabelPosition=bottom;sketch=0;aspect=fixed;html=1;verticalAlign=top;strokeColor=none;align=center;outlineConnect=0;shape=mxgraph.citrix.laptop_1;" parent="ZP6E8Msi36bvybZyYE74-1" vertex="1">
          <mxGeometry x="-3270" y="107.5" width="70.91" height="60" as="geometry" />
        </mxCell>
        <mxCell id="ZP6E8Msi36bvybZyYE74-4" style="edgeStyle=orthogonalEdgeStyle;rounded=0;orthogonalLoop=1;jettySize=auto;html=1;endArrow=none;endFill=0;" parent="ZP6E8Msi36bvybZyYE74-1" source="ZP6E8Msi36bvybZyYE74-5" target="ZP6E8Msi36bvybZyYE74-8" edge="1">
          <mxGeometry relative="1" as="geometry" />
        </mxCell>
        <mxCell id="ZP6E8Msi36bvybZyYE74-5" value="" style="verticalLabelPosition=bottom;sketch=0;aspect=fixed;html=1;verticalAlign=top;strokeColor=none;align=center;outlineConnect=0;shape=mxgraph.citrix.license_server;" parent="ZP6E8Msi36bvybZyYE74-1" vertex="1">
          <mxGeometry x="-3130" y="107.5" width="45.89" height="60" as="geometry" />
        </mxCell>
        <mxCell id="ZP6E8Msi36bvybZyYE74-6" style="edgeStyle=orthogonalEdgeStyle;rounded=0;orthogonalLoop=1;jettySize=auto;html=1;endArrow=none;endFill=0;" parent="ZP6E8Msi36bvybZyYE74-1" source="ZP6E8Msi36bvybZyYE74-8" target="ZP6E8Msi36bvybZyYE74-40" edge="1">
          <mxGeometry relative="1" as="geometry">
            <mxPoint x="-2631" y="136.5" as="targetPoint" />
          </mxGeometry>
        </mxCell>
        <mxCell id="ZP6E8Msi36bvybZyYE74-8" value="" style="verticalLabelPosition=bottom;sketch=0;aspect=fixed;html=1;verticalAlign=top;strokeColor=none;align=center;outlineConnect=0;shape=mxgraph.citrix.cloud;" parent="ZP6E8Msi36bvybZyYE74-1" vertex="1">
          <mxGeometry x="-2940" y="90" width="145.56" height="95" as="geometry" />
        </mxCell>
        <mxCell id="ZP6E8Msi36bvybZyYE74-9" style="edgeStyle=orthogonalEdgeStyle;rounded=0;orthogonalLoop=1;jettySize=auto;html=1;endArrow=none;endFill=0;" parent="ZP6E8Msi36bvybZyYE74-1" source="ZP6E8Msi36bvybZyYE74-44" target="ZP6E8Msi36bvybZyYE74-33" edge="1">
          <mxGeometry relative="1" as="geometry">
            <mxPoint x="-2692" y="447.75" as="sourcePoint" />
            <Array as="points">
              <mxPoint x="-2860" y="837" />
            </Array>
          </mxGeometry>
        </mxCell>
        <mxCell id="vDBwevDJQfiuDSJaTTQ6-1" value="SMTPS" style="edgeLabel;html=1;align=center;verticalAlign=middle;resizable=0;points=[];fontSize=14;fontColor=#000000;" parent="ZP6E8Msi36bvybZyYE74-9" vertex="1" connectable="0">
          <mxGeometry x="0.8725" y="-4" relative="1" as="geometry">
            <mxPoint as="offset" />
          </mxGeometry>
        </mxCell>
        <mxCell id="ZP6E8Msi36bvybZyYE74-10" style="edgeStyle=orthogonalEdgeStyle;rounded=0;orthogonalLoop=1;jettySize=auto;html=1;fontSize=26;endArrow=none;endFill=0;" parent="ZP6E8Msi36bvybZyYE74-1" source="ZP6E8Msi36bvybZyYE74-33" target="ZP6E8Msi36bvybZyYE74-15" edge="1">
          <mxGeometry relative="1" as="geometry">
            <mxPoint x="-3050" y="850" as="sourcePoint" />
            <Array as="points">
              <mxPoint x="-2382" y="850" />
            </Array>
          </mxGeometry>
        </mxCell>
        <mxCell id="v7URF9XP5bFr2kX78uGs-0" style="edgeStyle=orthogonalEdgeStyle;rounded=0;orthogonalLoop=1;jettySize=auto;html=1;fontSize=16;fontColor=#000000;endArrow=classic;endFill=1;strokeWidth=1;" edge="1" parent="ZP6E8Msi36bvybZyYE74-1" source="ZP6E8Msi36bvybZyYE74-11" target="ZP6E8Msi36bvybZyYE74-36">
          <mxGeometry relative="1" as="geometry">
            <Array as="points">
              <mxPoint x="-2872" y="350" />
            </Array>
          </mxGeometry>
        </mxCell>
        <mxCell id="ZP6E8Msi36bvybZyYE74-11" value="DEV Secure Email Gateway" style="verticalLabelPosition=bottom;sketch=0;aspect=fixed;html=1;verticalAlign=top;strokeColor=none;align=center;outlineConnect=0;shape=mxgraph.citrix.license_server;" parent="ZP6E8Msi36bvybZyYE74-1" vertex="1">
          <mxGeometry x="-3070" y="328.01" width="65" height="85" as="geometry" />
        </mxCell>
        <mxCell id="ZP6E8Msi36bvybZyYE74-12" value="&lt;font style=&quot;font-size: 26px;&quot;&gt;Internet&lt;/font&gt;" style="text;html=1;strokeColor=none;fillColor=none;align=center;verticalAlign=middle;whiteSpace=wrap;rounded=0;rotation=-40;" parent="ZP6E8Msi36bvybZyYE74-1" vertex="1">
          <mxGeometry x="-3450" y="100" width="60" height="40" as="geometry" />
        </mxCell>
        <mxCell id="ZP6E8Msi36bvybZyYE74-13" value="&lt;font style=&quot;&quot;&gt;&lt;font style=&quot;font-size: 26px;&quot;&gt;DMZ 1&lt;/font&gt;&lt;br&gt;&lt;/font&gt;" style="text;html=1;strokeColor=none;fillColor=none;align=center;verticalAlign=middle;whiteSpace=wrap;rounded=0;rotation=-40;" parent="ZP6E8Msi36bvybZyYE74-1" vertex="1">
          <mxGeometry x="-3460" y="579" width="60" height="40" as="geometry" />
        </mxCell>
        <mxCell id="ZP6E8Msi36bvybZyYE74-14" value="&lt;font style=&quot;&quot;&gt;&lt;span style=&quot;font-size: 26px;&quot;&gt;Trusted Zone&lt;/span&gt;&lt;br&gt;&lt;/font&gt;" style="text;html=1;strokeColor=none;fillColor=none;align=center;verticalAlign=middle;whiteSpace=wrap;rounded=0;rotation=-40;" parent="ZP6E8Msi36bvybZyYE74-1" vertex="1">
          <mxGeometry x="-3440" y="813" width="60" height="40" as="geometry" />
        </mxCell>
        <mxCell id="ZP6E8Msi36bvybZyYE74-15" value="" style="verticalLabelPosition=bottom;sketch=0;aspect=fixed;html=1;verticalAlign=top;strokeColor=none;align=center;outlineConnect=0;shape=mxgraph.citrix.firewall;fontSize=26;" parent="ZP6E8Msi36bvybZyYE74-1" vertex="1">
          <mxGeometry x="-2450" y="647" width="75" height="93" as="geometry" />
        </mxCell>
        <mxCell id="ZP6E8Msi36bvybZyYE74-16" value="" style="rounded=0;whiteSpace=wrap;html=1;fontSize=26;align=left;fillColor=#d5e8d4;strokeColor=#82b366;" parent="ZP6E8Msi36bvybZyYE74-1" vertex="1">
          <mxGeometry x="-2131.63" y="935" width="310" height="60" as="geometry" />
        </mxCell>
        <mxCell id="ZP6E8Msi36bvybZyYE74-17" value="" style="verticalLabelPosition=bottom;sketch=0;aspect=fixed;html=1;verticalAlign=top;strokeColor=none;align=center;outlineConnect=0;shape=mxgraph.citrix.laptop_2;fontSize=26;" parent="ZP6E8Msi36bvybZyYE74-1" vertex="1">
          <mxGeometry x="-2103.25" y="946.75" width="48.95" height="36.5" as="geometry" />
        </mxCell>
        <mxCell id="ZP6E8Msi36bvybZyYE74-18" value="" style="verticalLabelPosition=bottom;sketch=0;aspect=fixed;html=1;verticalAlign=top;strokeColor=none;align=center;outlineConnect=0;shape=mxgraph.citrix.laptop_2;fontSize=26;" parent="ZP6E8Msi36bvybZyYE74-1" vertex="1">
          <mxGeometry x="-2033.25" y="948.5" width="48.95" height="36.5" as="geometry" />
        </mxCell>
        <mxCell id="ZP6E8Msi36bvybZyYE74-19" value="" style="verticalLabelPosition=bottom;sketch=0;aspect=fixed;html=1;verticalAlign=top;strokeColor=none;align=center;outlineConnect=0;shape=mxgraph.citrix.laptop_2;fontSize=26;" parent="ZP6E8Msi36bvybZyYE74-1" vertex="1">
          <mxGeometry x="-1963.25" y="948.5" width="48.95" height="36.5" as="geometry" />
        </mxCell>
        <mxCell id="ZP6E8Msi36bvybZyYE74-20" value="" style="verticalLabelPosition=bottom;sketch=0;aspect=fixed;html=1;verticalAlign=top;strokeColor=none;align=center;outlineConnect=0;shape=mxgraph.citrix.laptop_2;fontSize=26;" parent="ZP6E8Msi36bvybZyYE74-1" vertex="1">
          <mxGeometry x="-1893.25" y="948.5" width="48.95" height="36.5" as="geometry" />
        </mxCell>
        <mxCell id="ZP6E8Msi36bvybZyYE74-22" value="" style="verticalLabelPosition=bottom;sketch=0;aspect=fixed;html=1;verticalAlign=top;strokeColor=none;align=center;outlineConnect=0;shape=mxgraph.citrix.role_repeater;fillColor=#CCCCCC;gradientColor=#000000;gradientDirection=south;fontSize=26;" parent="ZP6E8Msi36bvybZyYE74-1" vertex="1">
          <mxGeometry x="-2140" y="973" width="36.75" height="36.75" as="geometry" />
        </mxCell>
        <mxCell id="quEMIyfFlBkm5J6FRyJu-0" style="edgeStyle=orthogonalEdgeStyle;rounded=0;orthogonalLoop=1;jettySize=auto;html=1;fontSize=16;fontColor=#000000;endArrow=none;endFill=0;strokeWidth=1;" edge="1" parent="ZP6E8Msi36bvybZyYE74-1" source="ZP6E8Msi36bvybZyYE74-24" target="ZP6E8Msi36bvybZyYE74-15">
          <mxGeometry relative="1" as="geometry">
            <Array as="points">
              <mxPoint x="-2340" y="890" />
              <mxPoint x="-2340" y="694" />
            </Array>
          </mxGeometry>
        </mxCell>
        <mxCell id="ZP6E8Msi36bvybZyYE74-24" value="" style="rounded=0;whiteSpace=wrap;html=1;fontSize=26;align=left;fillColor=#d5e8d4;strokeColor=#82b366;" parent="ZP6E8Msi36bvybZyYE74-1" vertex="1">
          <mxGeometry x="-2131.63" y="860" width="310" height="60" as="geometry" />
        </mxCell>
        <mxCell id="ZP6E8Msi36bvybZyYE74-25" value="" style="verticalLabelPosition=bottom;sketch=0;aspect=fixed;html=1;verticalAlign=top;strokeColor=none;align=center;outlineConnect=0;shape=mxgraph.citrix.laptop_2;fontSize=26;" parent="ZP6E8Msi36bvybZyYE74-1" vertex="1">
          <mxGeometry x="-2111.63" y="871.75" width="48.95" height="36.5" as="geometry" />
        </mxCell>
        <mxCell id="ZP6E8Msi36bvybZyYE74-26" value="" style="verticalLabelPosition=bottom;sketch=0;aspect=fixed;html=1;verticalAlign=top;strokeColor=none;align=center;outlineConnect=0;shape=mxgraph.citrix.laptop_2;fontSize=26;" parent="ZP6E8Msi36bvybZyYE74-1" vertex="1">
          <mxGeometry x="-2041.63" y="873.5" width="48.95" height="36.5" as="geometry" />
        </mxCell>
        <mxCell id="ZP6E8Msi36bvybZyYE74-27" value="" style="verticalLabelPosition=bottom;sketch=0;aspect=fixed;html=1;verticalAlign=top;strokeColor=none;align=center;outlineConnect=0;shape=mxgraph.citrix.laptop_2;fontSize=26;" parent="ZP6E8Msi36bvybZyYE74-1" vertex="1">
          <mxGeometry x="-1971.63" y="873.5" width="48.95" height="36.5" as="geometry" />
        </mxCell>
        <mxCell id="ZP6E8Msi36bvybZyYE74-28" value="" style="verticalLabelPosition=bottom;sketch=0;aspect=fixed;html=1;verticalAlign=top;strokeColor=none;align=center;outlineConnect=0;shape=mxgraph.citrix.laptop_2;fontSize=26;" parent="ZP6E8Msi36bvybZyYE74-1" vertex="1">
          <mxGeometry x="-1901.63" y="873.5" width="48.95" height="36.5" as="geometry" />
        </mxCell>
        <mxCell id="ZP6E8Msi36bvybZyYE74-29" value="Corporate Network" style="verticalLabelPosition=bottom;sketch=0;aspect=fixed;html=1;verticalAlign=top;strokeColor=none;align=center;outlineConnect=0;shape=mxgraph.citrix.site;fontSize=26;" parent="ZP6E8Msi36bvybZyYE74-1" vertex="1">
          <mxGeometry x="-1992.68" y="430" width="74.16" height="70" as="geometry" />
        </mxCell>
        <mxCell id="ZP6E8Msi36bvybZyYE74-31" style="edgeStyle=orthogonalEdgeStyle;rounded=0;orthogonalLoop=1;jettySize=auto;html=1;fontSize=21;endArrow=none;endFill=0;strokeWidth=1;" parent="ZP6E8Msi36bvybZyYE74-1" source="ZP6E8Msi36bvybZyYE74-33" target="ZP6E8Msi36bvybZyYE74-49" edge="1">
          <mxGeometry relative="1" as="geometry">
            <mxPoint x="-3016.5" y="870" as="sourcePoint" />
            <Array as="points">
              <mxPoint x="-3092" y="870" />
              <mxPoint x="-2958" y="870" />
              <mxPoint x="-2958" y="949" />
            </Array>
          </mxGeometry>
        </mxCell>
        <mxCell id="ZP6E8Msi36bvybZyYE74-33" value="Linux mail server" style="verticalLabelPosition=bottom;sketch=0;aspect=fixed;html=1;verticalAlign=top;strokeColor=none;align=center;outlineConnect=0;shape=mxgraph.citrix.smtp_server;" parent="ZP6E8Msi36bvybZyYE74-1" vertex="1">
          <mxGeometry x="-3130" y="770" width="76" height="92" as="geometry" />
        </mxCell>
        <mxCell id="ZP6E8Msi36bvybZyYE74-34" value="" style="endArrow=none;dashed=1;html=1;dashPattern=1 3;strokeWidth=4;rounded=0;fontSize=12;fillColor=#d80073;strokeColor=#A50040;" parent="ZP6E8Msi36bvybZyYE74-1" edge="1">
          <mxGeometry width="50" height="50" relative="1" as="geometry">
            <mxPoint x="-3470" y="268" as="sourcePoint" />
            <mxPoint x="-2450" y="268" as="targetPoint" />
          </mxGeometry>
        </mxCell>
        <mxCell id="ZP6E8Msi36bvybZyYE74-35" style="edgeStyle=orthogonalEdgeStyle;rounded=0;orthogonalLoop=1;jettySize=auto;html=1;fontSize=12;endArrow=none;endFill=0;strokeWidth=1;" parent="ZP6E8Msi36bvybZyYE74-1" source="oAIUZhP5bazgCEgnIMyF-11" target="ZP6E8Msi36bvybZyYE74-11" edge="1">
          <mxGeometry relative="1" as="geometry">
            <Array as="points">
              <mxPoint x="-2412" y="370" />
            </Array>
          </mxGeometry>
        </mxCell>
        <mxCell id="vDBwevDJQfiuDSJaTTQ6-0" value="SMTPS" style="edgeLabel;html=1;align=center;verticalAlign=middle;resizable=0;points=[];fontSize=14;fontColor=#000000;" parent="ZP6E8Msi36bvybZyYE74-35" vertex="1" connectable="0">
          <mxGeometry x="0.2896" relative="1" as="geometry">
            <mxPoint x="-205" y="1" as="offset" />
          </mxGeometry>
        </mxCell>
        <mxCell id="ZP6E8Msi36bvybZyYE74-36" value="Internet Firewall" style="verticalLabelPosition=bottom;sketch=0;aspect=fixed;html=1;verticalAlign=top;strokeColor=none;align=center;outlineConnect=0;shape=mxgraph.citrix.firewall;" parent="ZP6E8Msi36bvybZyYE74-1" vertex="1">
          <mxGeometry x="-2910" y="230" width="75" height="93" as="geometry" />
        </mxCell>
        <mxCell id="ZP6E8Msi36bvybZyYE74-37" value="" style="endArrow=none;dashed=1;html=1;dashPattern=1 3;strokeWidth=4;rounded=0;fontSize=12;fillColor=#d80073;strokeColor=#A50040;" parent="ZP6E8Msi36bvybZyYE74-1" edge="1">
          <mxGeometry width="50" height="50" relative="1" as="geometry">
            <mxPoint x="-3469.5" y="697" as="sourcePoint" />
            <mxPoint x="-2449.5" y="697" as="targetPoint" />
          </mxGeometry>
        </mxCell>
        <mxCell id="ZP6E8Msi36bvybZyYE74-38" value="" style="verticalLabelPosition=bottom;sketch=0;aspect=fixed;html=1;verticalAlign=top;strokeColor=none;align=center;outlineConnect=0;shape=mxgraph.citrix.firewall;" parent="ZP6E8Msi36bvybZyYE74-1" vertex="1">
          <mxGeometry x="-2909" y="630" width="75" height="93" as="geometry" />
        </mxCell>
        <mxCell id="ZP6E8Msi36bvybZyYE74-39" value="" style="endArrow=none;dashed=1;html=1;dashPattern=1 3;strokeWidth=4;rounded=0;fontSize=12;fillColor=#d80073;strokeColor=#A50040;" parent="ZP6E8Msi36bvybZyYE74-1" edge="1">
          <mxGeometry width="50" height="50" relative="1" as="geometry">
            <mxPoint x="-3480" y="960" as="sourcePoint" />
            <mxPoint x="-2450" y="960" as="targetPoint" />
          </mxGeometry>
        </mxCell>
        <mxCell id="ZP6E8Msi36bvybZyYE74-40" value="" style="verticalLabelPosition=bottom;sketch=0;aspect=fixed;html=1;verticalAlign=top;strokeColor=none;align=center;outlineConnect=0;shape=mxgraph.citrix.dns_server;fontSize=12;" parent="ZP6E8Msi36bvybZyYE74-1" vertex="1">
          <mxGeometry x="-2624" y="91.25" width="76.5" height="92.5" as="geometry" />
        </mxCell>
        <mxCell id="ZP6E8Msi36bvybZyYE74-41" value="" style="endArrow=none;dashed=1;html=1;dashPattern=1 3;strokeWidth=4;rounded=0;fontSize=12;fillColor=#d80073;strokeColor=#A50040;" parent="ZP6E8Msi36bvybZyYE74-1" edge="1">
          <mxGeometry width="50" height="50" relative="1" as="geometry">
            <mxPoint x="-3470" y="483.25" as="sourcePoint" />
            <mxPoint x="-2450" y="483.25" as="targetPoint" />
          </mxGeometry>
        </mxCell>
        <mxCell id="ZP6E8Msi36bvybZyYE74-42" value="&lt;font style=&quot;&quot;&gt;&lt;font style=&quot;font-size: 26px;&quot;&gt;DMZ 0&lt;/font&gt;&lt;br&gt;&lt;/font&gt;" style="text;html=1;strokeColor=none;fillColor=none;align=center;verticalAlign=middle;whiteSpace=wrap;rounded=0;rotation=-40;" parent="ZP6E8Msi36bvybZyYE74-1" vertex="1">
          <mxGeometry x="-3460" y="352.63" width="60" height="35.75" as="geometry" />
        </mxCell>
        <mxCell id="ZP6E8Msi36bvybZyYE74-43" style="edgeStyle=orthogonalEdgeStyle;rounded=0;orthogonalLoop=1;jettySize=auto;html=1;fontSize=12;endArrow=none;endFill=0;strokeWidth=1;" parent="ZP6E8Msi36bvybZyYE74-1" source="ZP6E8Msi36bvybZyYE74-44" target="ZP6E8Msi36bvybZyYE74-11" edge="1">
          <mxGeometry relative="1" as="geometry">
            <Array as="points">
              <mxPoint x="-2872" y="390" />
            </Array>
          </mxGeometry>
        </mxCell>
        <mxCell id="ZP6E8Msi36bvybZyYE74-44" value="" style="verticalLabelPosition=bottom;sketch=0;aspect=fixed;html=1;verticalAlign=top;strokeColor=none;align=center;outlineConnect=0;shape=mxgraph.citrix.firewall;" parent="ZP6E8Msi36bvybZyYE74-1" vertex="1">
          <mxGeometry x="-2910" y="447.75" width="75" height="93" as="geometry" />
        </mxCell>
        <mxCell id="ZP6E8Msi36bvybZyYE74-46" value="&lt;font style=&quot;&quot;&gt;&lt;span style=&quot;font-size: 26px;&quot;&gt;Data Zone&lt;/span&gt;&lt;br&gt;&lt;/font&gt;" style="text;html=1;strokeColor=none;fillColor=none;align=center;verticalAlign=middle;whiteSpace=wrap;rounded=0;rotation=-40;" parent="ZP6E8Msi36bvybZyYE74-1" vertex="1">
          <mxGeometry x="-3440" y="1090" width="60" height="40" as="geometry" />
        </mxCell>
        <mxCell id="ZP6E8Msi36bvybZyYE74-47" value="LDAP" style="verticalLabelPosition=bottom;sketch=0;aspect=fixed;html=1;verticalAlign=top;strokeColor=none;align=center;outlineConnect=0;shape=mxgraph.citrix.database;fontSize=21;" parent="ZP6E8Msi36bvybZyYE74-1" vertex="1">
          <mxGeometry x="-3150" y="1110" width="42.5" height="50" as="geometry" />
        </mxCell>
        <mxCell id="ZP6E8Msi36bvybZyYE74-48" style="edgeStyle=orthogonalEdgeStyle;rounded=0;orthogonalLoop=1;jettySize=auto;html=1;fontSize=21;endArrow=none;endFill=0;strokeWidth=1;" parent="ZP6E8Msi36bvybZyYE74-1" source="ZP6E8Msi36bvybZyYE74-49" target="ZP6E8Msi36bvybZyYE74-47" edge="1">
          <mxGeometry relative="1" as="geometry">
            <mxPoint x="-2630" y="1080" as="targetPoint" />
            <Array as="points">
              <mxPoint x="-2861" y="1135" />
            </Array>
          </mxGeometry>
        </mxCell>
        <mxCell id="vDBwevDJQfiuDSJaTTQ6-2" value="LDAPS" style="edgeLabel;html=1;align=center;verticalAlign=middle;resizable=0;points=[];fontSize=14;fontColor=#000000;" parent="ZP6E8Msi36bvybZyYE74-48" vertex="1" connectable="0">
          <mxGeometry x="0.839" y="-3" relative="1" as="geometry">
            <mxPoint x="2" y="3" as="offset" />
          </mxGeometry>
        </mxCell>
        <mxCell id="ZP6E8Msi36bvybZyYE74-49" value="" style="verticalLabelPosition=bottom;sketch=0;aspect=fixed;html=1;verticalAlign=top;strokeColor=none;align=center;outlineConnect=0;shape=mxgraph.citrix.firewall;" parent="ZP6E8Msi36bvybZyYE74-1" vertex="1">
          <mxGeometry x="-2899" y="902.75" width="75" height="93" as="geometry" />
        </mxCell>
        <mxCell id="ZP6E8Msi36bvybZyYE74-51" value="Development" style="text;html=1;strokeColor=none;fillColor=none;align=center;verticalAlign=middle;whiteSpace=wrap;rounded=0;fontSize=45;fontColor=#FF0000;" parent="ZP6E8Msi36bvybZyYE74-1" vertex="1">
          <mxGeometry x="-2031.6299999999999" y="20" width="60" height="35" as="geometry" />
        </mxCell>
        <mxCell id="9XwcshRH32KGS7xFEsLu-0" style="edgeStyle=orthogonalEdgeStyle;rounded=0;orthogonalLoop=1;jettySize=auto;html=1;fontSize=16;fontColor=#000000;endArrow=none;endFill=0;strokeWidth=1;" edge="1" parent="ZP6E8Msi36bvybZyYE74-1" source="oAIUZhP5bazgCEgnIMyF-0" target="ZP6E8Msi36bvybZyYE74-15">
          <mxGeometry relative="1" as="geometry" />
        </mxCell>
        <mxCell id="oAIUZhP5bazgCEgnIMyF-0" value="" style="rounded=0;whiteSpace=wrap;html=1;fontSize=26;align=left;fillColor=#d5e8d4;strokeColor=#82b366;" parent="ZP6E8Msi36bvybZyYE74-1" vertex="1">
          <mxGeometry x="-2131.63" y="656.13" width="310" height="60" as="geometry" />
        </mxCell>
        <mxCell id="oAIUZhP5bazgCEgnIMyF-1" value="" style="verticalLabelPosition=bottom;sketch=0;aspect=fixed;html=1;verticalAlign=top;strokeColor=none;align=center;outlineConnect=0;shape=mxgraph.citrix.laptop_2;fontSize=26;" parent="ZP6E8Msi36bvybZyYE74-1" vertex="1">
          <mxGeometry x="-2100" y="670.3" width="45.7" height="34.08" as="geometry" />
        </mxCell>
        <mxCell id="oAIUZhP5bazgCEgnIMyF-2" value="" style="verticalLabelPosition=bottom;sketch=0;aspect=fixed;html=1;verticalAlign=top;strokeColor=none;align=center;outlineConnect=0;shape=mxgraph.citrix.laptop_2;fontSize=26;" parent="ZP6E8Msi36bvybZyYE74-1" vertex="1">
          <mxGeometry x="-2033.25" y="669.63" width="48.95" height="36.5" as="geometry" />
        </mxCell>
        <mxCell id="oAIUZhP5bazgCEgnIMyF-3" value="" style="verticalLabelPosition=bottom;sketch=0;aspect=fixed;html=1;verticalAlign=top;strokeColor=none;align=center;outlineConnect=0;shape=mxgraph.citrix.laptop_2;fontSize=26;" parent="ZP6E8Msi36bvybZyYE74-1" vertex="1">
          <mxGeometry x="-1963.25" y="669.63" width="48.95" height="36.5" as="geometry" />
        </mxCell>
        <mxCell id="oAIUZhP5bazgCEgnIMyF-4" value="" style="verticalLabelPosition=bottom;sketch=0;aspect=fixed;html=1;verticalAlign=top;strokeColor=none;align=center;outlineConnect=0;shape=mxgraph.citrix.laptop_2;fontSize=26;" parent="ZP6E8Msi36bvybZyYE74-1" vertex="1">
          <mxGeometry x="-1893.25" y="669.63" width="48.95" height="36.5" as="geometry" />
        </mxCell>
        <mxCell id="oAIUZhP5bazgCEgnIMyF-12" style="edgeStyle=orthogonalEdgeStyle;rounded=0;orthogonalLoop=1;jettySize=auto;html=1;fontSize=45;fontColor=#FF0000;endArrow=none;endFill=0;strokeWidth=1;" parent="ZP6E8Msi36bvybZyYE74-1" source="oAIUZhP5bazgCEgnIMyF-6" target="oAIUZhP5bazgCEgnIMyF-11" edge="1">
          <mxGeometry relative="1" as="geometry">
            <Array as="points">
              <mxPoint x="-2310" y="617" />
              <mxPoint x="-2310" y="267" />
            </Array>
          </mxGeometry>
        </mxCell>
        <mxCell id="oAIUZhP5bazgCEgnIMyF-6" value="" style="rounded=0;whiteSpace=wrap;html=1;fontSize=26;align=left;fillColor=#d5e8d4;strokeColor=#82b366;" parent="ZP6E8Msi36bvybZyYE74-1" vertex="1">
          <mxGeometry x="-2131.63" y="587" width="310" height="60" as="geometry" />
        </mxCell>
        <mxCell id="oAIUZhP5bazgCEgnIMyF-7" value="" style="verticalLabelPosition=bottom;sketch=0;aspect=fixed;html=1;verticalAlign=top;strokeColor=none;align=center;outlineConnect=0;shape=mxgraph.citrix.laptop_2;fontSize=26;" parent="ZP6E8Msi36bvybZyYE74-1" vertex="1">
          <mxGeometry x="-2111.63" y="598.75" width="48.95" height="36.5" as="geometry" />
        </mxCell>
        <mxCell id="oAIUZhP5bazgCEgnIMyF-8" value="" style="verticalLabelPosition=bottom;sketch=0;aspect=fixed;html=1;verticalAlign=top;strokeColor=none;align=center;outlineConnect=0;shape=mxgraph.citrix.laptop_2;fontSize=26;" parent="ZP6E8Msi36bvybZyYE74-1" vertex="1">
          <mxGeometry x="-2041.63" y="600.5" width="48.95" height="36.5" as="geometry" />
        </mxCell>
        <mxCell id="oAIUZhP5bazgCEgnIMyF-9" value="" style="verticalLabelPosition=bottom;sketch=0;aspect=fixed;html=1;verticalAlign=top;strokeColor=none;align=center;outlineConnect=0;shape=mxgraph.citrix.laptop_2;fontSize=26;" parent="ZP6E8Msi36bvybZyYE74-1" vertex="1">
          <mxGeometry x="-1971.63" y="600.5" width="48.95" height="36.5" as="geometry" />
        </mxCell>
        <mxCell id="oAIUZhP5bazgCEgnIMyF-10" value="" style="verticalLabelPosition=bottom;sketch=0;aspect=fixed;html=1;verticalAlign=top;strokeColor=none;align=center;outlineConnect=0;shape=mxgraph.citrix.laptop_2;fontSize=26;" parent="ZP6E8Msi36bvybZyYE74-1" vertex="1">
          <mxGeometry x="-1901.63" y="600.5" width="48.95" height="36.5" as="geometry" />
        </mxCell>
        <mxCell id="oAIUZhP5bazgCEgnIMyF-11" value="" style="verticalLabelPosition=bottom;sketch=0;aspect=fixed;html=1;verticalAlign=top;strokeColor=none;align=center;outlineConnect=0;shape=mxgraph.citrix.firewall;fontSize=26;" parent="ZP6E8Msi36bvybZyYE74-1" vertex="1">
          <mxGeometry x="-2450" y="220" width="75" height="93" as="geometry" />
        </mxCell>
        <mxCell id="YwrcWY1H_yVZBE2LZ2vB-0" value="&lt;font style=&quot;font-size: 18px;&quot;&gt;- Dedicated VLAN and Wifi to simulate inbound connections. These can be accessed directly or, better, through vitrual environments (HVD&#39;s)&lt;br&gt;- The DEV Mail Gateway is by default not accessible from outside the corporation. However, outbound development or test traffic is conceivable.&lt;br&gt;- Network VLANs and Servers are completely segregated from Production.&amp;nbsp;&lt;br&gt;- Corporate users and developers need to receive development or test emails and therefore can connect directly to the Linux mail servers.&amp;nbsp;&lt;br&gt;&lt;/font&gt;" style="text;html=1;strokeColor=none;fillColor=none;align=left;verticalAlign=middle;whiteSpace=wrap;rounded=0;fontSize=12;rotation=0;" parent="ZP6E8Msi36bvybZyYE74-1" vertex="1">
          <mxGeometry x="-2262.16" y="210" width="490" height="30" as="geometry" />
        </mxCell>
        <mxCell id="PSE2z66sbOJY9W76quOB-0" value="" style="verticalLabelPosition=bottom;sketch=0;aspect=fixed;html=1;verticalAlign=top;strokeColor=none;align=center;outlineConnect=0;shape=mxgraph.citrix.firewall;fontSize=26;" parent="ZP6E8Msi36bvybZyYE74-1" vertex="1">
          <mxGeometry x="-2450" y="440" width="75" height="93" as="geometry" />
        </mxCell>
        <mxCell id="5pxYGCu_Hg4CWIZdEtyU-0" value="" style="verticalLabelPosition=bottom;sketch=0;aspect=fixed;html=1;verticalAlign=top;strokeColor=none;align=center;outlineConnect=0;shape=mxgraph.citrix.firewall;fontSize=26;" parent="ZP6E8Msi36bvybZyYE74-1" vertex="1">
          <mxGeometry x="-2440" y="916.75" width="75" height="93" as="geometry" />
        </mxCell>
        <mxCell id="JpFFA0iNBBmRJoaejju--0" value="Developers" style="text;html=1;strokeColor=none;fillColor=none;align=center;verticalAlign=middle;whiteSpace=wrap;rounded=0;fontSize=16;fontColor=#000000;" vertex="1" parent="ZP6E8Msi36bvybZyYE74-1">
          <mxGeometry x="-1893.25" y="557" width="60" height="30" as="geometry" />
        </mxCell>
        <mxCell id="E759TvX757gkjb7Yj2_I-0" value="Corporate" style="text;html=1;strokeColor=none;fillColor=none;align=center;verticalAlign=middle;whiteSpace=wrap;rounded=0;fontSize=16;fontColor=#000000;" vertex="1" parent="ZP6E8Msi36bvybZyYE74-1">
          <mxGeometry x="-1893.2500000000002" y="832" width="60" height="30" as="geometry" />
        </mxCell>
        <mxCell id="oAIUZhP5bazgCEgnIMyF-5" value="" style="verticalLabelPosition=bottom;sketch=0;aspect=fixed;html=1;verticalAlign=top;strokeColor=none;align=center;outlineConnect=0;shape=mxgraph.citrix.role_repeater;fillColor=#CCCCCC;gradientColor=#000000;gradientDirection=south;fontSize=26;" parent="ZP6E8Msi36bvybZyYE74-1" vertex="1">
          <mxGeometry x="-2148.38" y="563.75" width="36.75" height="36.75" as="geometry" />
        </mxCell>
      </root>
    </mxGraphModel>
  </diagram>
  <diagram name="Managment" id="yQzQCwI-b9QJbhipvbRM">
    <mxGraphModel dx="5066" dy="986" grid="1" gridSize="10" guides="1" tooltips="1" connect="1" arrows="1" fold="1" page="1" pageScale="1.5" pageWidth="1169" pageHeight="826" background="none" math="0" shadow="0">
      <root>
        <mxCell id="gsh-S_FmZg22HxGe3ayR-0" style=";html=1;" />
        <mxCell id="gsh-S_FmZg22HxGe3ayR-1" style=";html=1;" parent="gsh-S_FmZg22HxGe3ayR-0" />
        <mxCell id="gsh-S_FmZg22HxGe3ayR-2" style="edgeStyle=orthogonalEdgeStyle;rounded=0;orthogonalLoop=1;jettySize=auto;html=1;endArrow=none;endFill=0;" parent="gsh-S_FmZg22HxGe3ayR-1" source="gsh-S_FmZg22HxGe3ayR-3" target="gsh-S_FmZg22HxGe3ayR-5" edge="1">
          <mxGeometry relative="1" as="geometry" />
        </mxCell>
        <mxCell id="gsh-S_FmZg22HxGe3ayR-3" value="" style="verticalLabelPosition=bottom;sketch=0;aspect=fixed;html=1;verticalAlign=top;strokeColor=none;align=center;outlineConnect=0;shape=mxgraph.citrix.laptop_1;" parent="gsh-S_FmZg22HxGe3ayR-1" vertex="1">
          <mxGeometry x="-3190" y="36.5" width="70.91" height="60" as="geometry" />
        </mxCell>
        <mxCell id="gsh-S_FmZg22HxGe3ayR-4" style="edgeStyle=orthogonalEdgeStyle;rounded=0;orthogonalLoop=1;jettySize=auto;html=1;endArrow=none;endFill=0;" parent="gsh-S_FmZg22HxGe3ayR-1" source="gsh-S_FmZg22HxGe3ayR-5" target="gsh-S_FmZg22HxGe3ayR-8" edge="1">
          <mxGeometry relative="1" as="geometry" />
        </mxCell>
        <mxCell id="gsh-S_FmZg22HxGe3ayR-5" value="" style="verticalLabelPosition=bottom;sketch=0;aspect=fixed;html=1;verticalAlign=top;strokeColor=none;align=center;outlineConnect=0;shape=mxgraph.citrix.license_server;" parent="gsh-S_FmZg22HxGe3ayR-1" vertex="1">
          <mxGeometry x="-3060" y="37.5" width="45.89" height="60" as="geometry" />
        </mxCell>
        <mxCell id="gsh-S_FmZg22HxGe3ayR-6" style="edgeStyle=orthogonalEdgeStyle;rounded=0;orthogonalLoop=1;jettySize=auto;html=1;endArrow=none;endFill=0;" parent="gsh-S_FmZg22HxGe3ayR-1" source="gsh-S_FmZg22HxGe3ayR-8" target="gsh-S_FmZg22HxGe3ayR-41" edge="1">
          <mxGeometry relative="1" as="geometry">
            <mxPoint x="-2561" y="66.5" as="targetPoint" />
          </mxGeometry>
        </mxCell>
        <mxCell id="gsh-S_FmZg22HxGe3ayR-7" style="edgeStyle=orthogonalEdgeStyle;rounded=0;orthogonalLoop=1;jettySize=auto;html=1;endArrow=none;endFill=0;" parent="gsh-S_FmZg22HxGe3ayR-1" source="gsh-S_FmZg22HxGe3ayR-8" edge="1">
          <mxGeometry relative="1" as="geometry">
            <mxPoint x="-2812.5" y="165" as="targetPoint" />
            <Array as="points">
              <mxPoint x="-2780" y="140" />
              <mxPoint x="-2812" y="140" />
            </Array>
          </mxGeometry>
        </mxCell>
        <mxCell id="gsh-S_FmZg22HxGe3ayR-8" value="" style="verticalLabelPosition=bottom;sketch=0;aspect=fixed;html=1;verticalAlign=top;strokeColor=none;align=center;outlineConnect=0;shape=mxgraph.citrix.cloud;" parent="gsh-S_FmZg22HxGe3ayR-1" vertex="1">
          <mxGeometry x="-2870" y="20" width="145.56" height="95" as="geometry" />
        </mxCell>
        <mxCell id="gsh-S_FmZg22HxGe3ayR-10" value="Secure Email Gateway" style="verticalLabelPosition=bottom;sketch=0;aspect=fixed;html=1;verticalAlign=top;strokeColor=none;align=center;outlineConnect=0;shape=mxgraph.citrix.license_server;" parent="gsh-S_FmZg22HxGe3ayR-1" vertex="1">
          <mxGeometry x="-2654.5" y="258" width="65" height="85" as="geometry" />
        </mxCell>
        <mxCell id="gsh-S_FmZg22HxGe3ayR-11" value="&lt;font style=&quot;font-size: 26px;&quot;&gt;Internet&lt;/font&gt;" style="text;html=1;strokeColor=none;fillColor=none;align=center;verticalAlign=middle;whiteSpace=wrap;rounded=0;rotation=-40;" parent="gsh-S_FmZg22HxGe3ayR-1" vertex="1">
          <mxGeometry x="-3380" y="30" width="60" height="40" as="geometry" />
        </mxCell>
        <mxCell id="gsh-S_FmZg22HxGe3ayR-12" value="&lt;font style=&quot;&quot;&gt;&lt;font style=&quot;font-size: 26px;&quot;&gt;DMZ 1&lt;/font&gt;&lt;br&gt;&lt;/font&gt;" style="text;html=1;strokeColor=none;fillColor=none;align=center;verticalAlign=middle;whiteSpace=wrap;rounded=0;rotation=-40;" parent="gsh-S_FmZg22HxGe3ayR-1" vertex="1">
          <mxGeometry x="-3400" y="490" width="60" height="40" as="geometry" />
        </mxCell>
        <mxCell id="gsh-S_FmZg22HxGe3ayR-13" value="&lt;font style=&quot;&quot;&gt;&lt;span style=&quot;font-size: 26px;&quot;&gt;Trusted Zone&lt;/span&gt;&lt;br&gt;&lt;/font&gt;" style="text;html=1;strokeColor=none;fillColor=none;align=center;verticalAlign=middle;whiteSpace=wrap;rounded=0;rotation=-40;" parent="gsh-S_FmZg22HxGe3ayR-1" vertex="1">
          <mxGeometry x="-3380" y="724" width="60" height="40" as="geometry" />
        </mxCell>
        <mxCell id="gsh-S_FmZg22HxGe3ayR-14" value="" style="verticalLabelPosition=bottom;sketch=0;aspect=fixed;html=1;verticalAlign=top;strokeColor=none;align=center;outlineConnect=0;shape=mxgraph.citrix.firewall;fontSize=26;" parent="gsh-S_FmZg22HxGe3ayR-1" vertex="1">
          <mxGeometry x="-2380" y="561" width="75" height="93" as="geometry" />
        </mxCell>
        <mxCell id="gsh-S_FmZg22HxGe3ayR-15" value="" style="rounded=0;whiteSpace=wrap;html=1;fontSize=26;align=left;fillColor=#d5e8d4;strokeColor=#82b366;" parent="gsh-S_FmZg22HxGe3ayR-1" vertex="1">
          <mxGeometry x="-2081.63" y="828" width="310" height="60" as="geometry" />
        </mxCell>
        <mxCell id="gsh-S_FmZg22HxGe3ayR-16" value="" style="verticalLabelPosition=bottom;sketch=0;aspect=fixed;html=1;verticalAlign=top;strokeColor=none;align=center;outlineConnect=0;shape=mxgraph.citrix.laptop_2;fontSize=26;" parent="gsh-S_FmZg22HxGe3ayR-1" vertex="1">
          <mxGeometry x="-2053.25" y="839.75" width="48.95" height="36.5" as="geometry" />
        </mxCell>
        <mxCell id="gsh-S_FmZg22HxGe3ayR-17" value="" style="verticalLabelPosition=bottom;sketch=0;aspect=fixed;html=1;verticalAlign=top;strokeColor=none;align=center;outlineConnect=0;shape=mxgraph.citrix.laptop_2;fontSize=26;" parent="gsh-S_FmZg22HxGe3ayR-1" vertex="1">
          <mxGeometry x="-1983.25" y="841.5" width="48.95" height="36.5" as="geometry" />
        </mxCell>
        <mxCell id="gsh-S_FmZg22HxGe3ayR-18" value="" style="verticalLabelPosition=bottom;sketch=0;aspect=fixed;html=1;verticalAlign=top;strokeColor=none;align=center;outlineConnect=0;shape=mxgraph.citrix.laptop_2;fontSize=26;" parent="gsh-S_FmZg22HxGe3ayR-1" vertex="1">
          <mxGeometry x="-1913.25" y="841.5" width="48.95" height="36.5" as="geometry" />
        </mxCell>
        <mxCell id="gsh-S_FmZg22HxGe3ayR-19" value="" style="verticalLabelPosition=bottom;sketch=0;aspect=fixed;html=1;verticalAlign=top;strokeColor=none;align=center;outlineConnect=0;shape=mxgraph.citrix.laptop_2;fontSize=26;" parent="gsh-S_FmZg22HxGe3ayR-1" vertex="1">
          <mxGeometry x="-1843.25" y="841.5" width="48.95" height="36.5" as="geometry" />
        </mxCell>
        <mxCell id="gsh-S_FmZg22HxGe3ayR-21" value="" style="verticalLabelPosition=bottom;sketch=0;aspect=fixed;html=1;verticalAlign=top;strokeColor=none;align=center;outlineConnect=0;shape=mxgraph.citrix.role_repeater;fillColor=#CCCCCC;gradientColor=#000000;gradientDirection=south;fontSize=26;" parent="gsh-S_FmZg22HxGe3ayR-1" vertex="1">
          <mxGeometry x="-2090" y="866" width="36.75" height="36.75" as="geometry" />
        </mxCell>
        <mxCell id="gsh-S_FmZg22HxGe3ayR-22" style="edgeStyle=orthogonalEdgeStyle;rounded=0;orthogonalLoop=1;jettySize=auto;html=1;fontSize=12;endArrow=none;endFill=0;strokeWidth=1;" parent="gsh-S_FmZg22HxGe3ayR-1" source="gsh-S_FmZg22HxGe3ayR-23" target="1y4C-lCtitK6S9jCRPu_-3" edge="1">
          <mxGeometry relative="1" as="geometry">
            <mxPoint x="-2230" y="783" as="targetPoint" />
            <Array as="points">
              <mxPoint x="-2220" y="783" />
              <mxPoint x="-2220" y="1040" />
              <mxPoint x="-2330" y="1040" />
            </Array>
          </mxGeometry>
        </mxCell>
        <mxCell id="gsh-S_FmZg22HxGe3ayR-23" value="" style="rounded=0;whiteSpace=wrap;html=1;fontSize=26;align=left;fillColor=#d5e8d4;strokeColor=#82b366;" parent="gsh-S_FmZg22HxGe3ayR-1" vertex="1">
          <mxGeometry x="-2081.63" y="753" width="310" height="60" as="geometry" />
        </mxCell>
        <mxCell id="gsh-S_FmZg22HxGe3ayR-24" value="" style="verticalLabelPosition=bottom;sketch=0;aspect=fixed;html=1;verticalAlign=top;strokeColor=none;align=center;outlineConnect=0;shape=mxgraph.citrix.laptop_2;fontSize=26;" parent="gsh-S_FmZg22HxGe3ayR-1" vertex="1">
          <mxGeometry x="-2061.63" y="764.75" width="48.95" height="36.5" as="geometry" />
        </mxCell>
        <mxCell id="gsh-S_FmZg22HxGe3ayR-25" value="" style="verticalLabelPosition=bottom;sketch=0;aspect=fixed;html=1;verticalAlign=top;strokeColor=none;align=center;outlineConnect=0;shape=mxgraph.citrix.laptop_2;fontSize=26;" parent="gsh-S_FmZg22HxGe3ayR-1" vertex="1">
          <mxGeometry x="-1991.63" y="766.5" width="48.95" height="36.5" as="geometry" />
        </mxCell>
        <mxCell id="gsh-S_FmZg22HxGe3ayR-26" value="" style="verticalLabelPosition=bottom;sketch=0;aspect=fixed;html=1;verticalAlign=top;strokeColor=none;align=center;outlineConnect=0;shape=mxgraph.citrix.laptop_2;fontSize=26;" parent="gsh-S_FmZg22HxGe3ayR-1" vertex="1">
          <mxGeometry x="-1921.63" y="766.5" width="48.95" height="36.5" as="geometry" />
        </mxCell>
        <mxCell id="gsh-S_FmZg22HxGe3ayR-27" value="" style="verticalLabelPosition=bottom;sketch=0;aspect=fixed;html=1;verticalAlign=top;strokeColor=none;align=center;outlineConnect=0;shape=mxgraph.citrix.laptop_2;fontSize=26;" parent="gsh-S_FmZg22HxGe3ayR-1" vertex="1">
          <mxGeometry x="-1851.63" y="766.5" width="48.95" height="36.5" as="geometry" />
        </mxCell>
        <mxCell id="gsh-S_FmZg22HxGe3ayR-28" value="Corporate Network" style="verticalLabelPosition=bottom;sketch=0;aspect=fixed;html=1;verticalAlign=top;strokeColor=none;align=center;outlineConnect=0;shape=mxgraph.citrix.site;fontSize=26;" parent="gsh-S_FmZg22HxGe3ayR-1" vertex="1">
          <mxGeometry x="-1970" y="580" width="74.16" height="70" as="geometry" />
        </mxCell>
        <mxCell id="gsh-S_FmZg22HxGe3ayR-29" style="edgeStyle=orthogonalEdgeStyle;rounded=0;orthogonalLoop=1;jettySize=auto;html=1;fontSize=21;endArrow=none;endFill=0;strokeWidth=1;" parent="gsh-S_FmZg22HxGe3ayR-1" target="gsh-S_FmZg22HxGe3ayR-50" edge="1">
          <mxGeometry relative="1" as="geometry">
            <mxPoint x="-2690" y="759.3" as="sourcePoint" />
          </mxGeometry>
        </mxCell>
        <mxCell id="gsh-S_FmZg22HxGe3ayR-30" style="edgeStyle=orthogonalEdgeStyle;rounded=0;orthogonalLoop=1;jettySize=auto;html=1;fontSize=14;fontColor=#000000;endArrow=none;endFill=0;strokeWidth=1;" parent="gsh-S_FmZg22HxGe3ayR-1" source="gsh-S_FmZg22HxGe3ayR-32" target="gsh-S_FmZg22HxGe3ayR-39" edge="1">
          <mxGeometry relative="1" as="geometry" />
        </mxCell>
        <mxCell id="gsh-S_FmZg22HxGe3ayR-31" value="SMTPS" style="edgeLabel;html=1;align=center;verticalAlign=middle;resizable=0;points=[];fontSize=14;fontColor=#000000;" parent="gsh-S_FmZg22HxGe3ayR-30" vertex="1" connectable="0">
          <mxGeometry x="-0.7878" y="1" relative="1" as="geometry">
            <mxPoint as="offset" />
          </mxGeometry>
        </mxCell>
        <mxCell id="gsh-S_FmZg22HxGe3ayR-32" value="Exchange" style="verticalLabelPosition=bottom;sketch=0;aspect=fixed;html=1;verticalAlign=top;strokeColor=none;align=center;outlineConnect=0;shape=mxgraph.citrix.smtp_server;" parent="gsh-S_FmZg22HxGe3ayR-1" vertex="1">
          <mxGeometry x="-2640" y="701.5" width="76" height="92" as="geometry" />
        </mxCell>
        <mxCell id="gsh-S_FmZg22HxGe3ayR-33" value="" style="endArrow=none;dashed=1;html=1;dashPattern=1 3;strokeWidth=4;rounded=0;fontSize=12;fillColor=#d80073;strokeColor=#A50040;" parent="gsh-S_FmZg22HxGe3ayR-1" edge="1">
          <mxGeometry width="50" height="50" relative="1" as="geometry">
            <mxPoint x="-3400" y="198" as="sourcePoint" />
            <mxPoint x="-2380" y="198" as="targetPoint" />
          </mxGeometry>
        </mxCell>
        <mxCell id="gsh-S_FmZg22HxGe3ayR-34" style="edgeStyle=orthogonalEdgeStyle;rounded=0;orthogonalLoop=1;jettySize=auto;html=1;fontSize=12;endArrow=none;endFill=0;strokeWidth=1;" parent="gsh-S_FmZg22HxGe3ayR-1" source="gsh-S_FmZg22HxGe3ayR-36" target="gsh-S_FmZg22HxGe3ayR-10" edge="1">
          <mxGeometry relative="1" as="geometry">
            <Array as="points">
              <mxPoint x="-2710" y="212" />
              <mxPoint x="-2710" y="280" />
            </Array>
          </mxGeometry>
        </mxCell>
        <mxCell id="gsh-S_FmZg22HxGe3ayR-35" value="SMTPS" style="edgeLabel;html=1;align=center;verticalAlign=middle;resizable=0;points=[];fontSize=14;fontColor=#000000;" parent="gsh-S_FmZg22HxGe3ayR-34" vertex="1" connectable="0">
          <mxGeometry x="0.8573" y="-1" relative="1" as="geometry">
            <mxPoint x="-11" y="-1" as="offset" />
          </mxGeometry>
        </mxCell>
        <mxCell id="gsh-S_FmZg22HxGe3ayR-36" value="Internet Firewall" style="verticalLabelPosition=bottom;sketch=0;aspect=fixed;html=1;verticalAlign=top;strokeColor=none;align=center;outlineConnect=0;shape=mxgraph.citrix.firewall;" parent="gsh-S_FmZg22HxGe3ayR-1" vertex="1">
          <mxGeometry x="-2840" y="165" width="75" height="93" as="geometry" />
        </mxCell>
        <mxCell id="gsh-S_FmZg22HxGe3ayR-37" value="" style="endArrow=none;dashed=1;html=1;dashPattern=1 3;strokeWidth=4;rounded=0;fontSize=12;fillColor=#d80073;strokeColor=#A50040;" parent="gsh-S_FmZg22HxGe3ayR-1" edge="1">
          <mxGeometry width="50" height="50" relative="1" as="geometry">
            <mxPoint x="-3409.5" y="608" as="sourcePoint" />
            <mxPoint x="-2389.5" y="608" as="targetPoint" />
          </mxGeometry>
        </mxCell>
        <mxCell id="gsh-S_FmZg22HxGe3ayR-38" style="edgeStyle=orthogonalEdgeStyle;rounded=0;orthogonalLoop=1;jettySize=auto;html=1;fontSize=14;fontColor=#000000;endArrow=none;endFill=0;strokeWidth=1;" parent="gsh-S_FmZg22HxGe3ayR-1" source="gsh-S_FmZg22HxGe3ayR-39" target="gsh-S_FmZg22HxGe3ayR-45" edge="1">
          <mxGeometry relative="1" as="geometry" />
        </mxCell>
        <mxCell id="gsh-S_FmZg22HxGe3ayR-39" value="" style="verticalLabelPosition=bottom;sketch=0;aspect=fixed;html=1;verticalAlign=top;strokeColor=none;align=center;outlineConnect=0;shape=mxgraph.citrix.firewall;" parent="gsh-S_FmZg22HxGe3ayR-1" vertex="1">
          <mxGeometry x="-2849" y="541" width="75" height="93" as="geometry" />
        </mxCell>
        <mxCell id="gsh-S_FmZg22HxGe3ayR-40" value="" style="endArrow=none;dashed=1;html=1;dashPattern=1 3;strokeWidth=4;rounded=0;fontSize=12;fillColor=#d80073;strokeColor=#A50040;" parent="gsh-S_FmZg22HxGe3ayR-1" edge="1">
          <mxGeometry width="50" height="50" relative="1" as="geometry">
            <mxPoint x="-3420" y="871" as="sourcePoint" />
            <mxPoint x="-2390" y="871" as="targetPoint" />
          </mxGeometry>
        </mxCell>
        <mxCell id="gsh-S_FmZg22HxGe3ayR-41" value="Public DNS" style="verticalLabelPosition=bottom;sketch=0;aspect=fixed;html=1;verticalAlign=top;strokeColor=none;align=center;outlineConnect=0;shape=mxgraph.citrix.dns_server;fontSize=12;" parent="gsh-S_FmZg22HxGe3ayR-1" vertex="1">
          <mxGeometry x="-2554" y="21.25" width="76.5" height="92.5" as="geometry" />
        </mxCell>
        <mxCell id="gsh-S_FmZg22HxGe3ayR-42" value="" style="endArrow=none;dashed=1;html=1;dashPattern=1 3;strokeWidth=4;rounded=0;fontSize=12;fillColor=#d80073;strokeColor=#A50040;" parent="gsh-S_FmZg22HxGe3ayR-1" edge="1">
          <mxGeometry width="50" height="50" relative="1" as="geometry">
            <mxPoint x="-3400" y="413.25" as="sourcePoint" />
            <mxPoint x="-2380" y="413.25" as="targetPoint" />
          </mxGeometry>
        </mxCell>
        <mxCell id="gsh-S_FmZg22HxGe3ayR-44" style="edgeStyle=orthogonalEdgeStyle;rounded=0;orthogonalLoop=1;jettySize=auto;html=1;fontSize=12;endArrow=none;endFill=0;strokeWidth=1;" parent="gsh-S_FmZg22HxGe3ayR-1" source="gsh-S_FmZg22HxGe3ayR-45" target="gsh-S_FmZg22HxGe3ayR-10" edge="1">
          <mxGeometry relative="1" as="geometry">
            <Array as="points">
              <mxPoint x="-2802" y="320" />
            </Array>
          </mxGeometry>
        </mxCell>
        <mxCell id="gsh-S_FmZg22HxGe3ayR-45" value="" style="verticalLabelPosition=bottom;sketch=0;aspect=fixed;html=1;verticalAlign=top;strokeColor=none;align=center;outlineConnect=0;shape=mxgraph.citrix.firewall;" parent="gsh-S_FmZg22HxGe3ayR-1" vertex="1">
          <mxGeometry x="-2840" y="377.75" width="75" height="93" as="geometry" />
        </mxCell>
        <mxCell id="gsh-S_FmZg22HxGe3ayR-46" value="&lt;font style=&quot;&quot;&gt;&lt;font style=&quot;font-size: 16px;&quot;&gt;A dedicated security component will often have a separate interface for its administration, in order to segegrate this functionality from the normal data flows. This management interface is often only exposed in a dedicated, high-privileged zone. A jump server, Virtual Environment or PAM solution can be used to enforce additional restrictions.&lt;/font&gt;&lt;br&gt;&lt;/font&gt;" style="text;html=1;strokeColor=none;fillColor=none;align=left;verticalAlign=middle;whiteSpace=wrap;rounded=0;fontSize=12;rotation=0;" parent="gsh-S_FmZg22HxGe3ayR-1" vertex="1">
          <mxGeometry x="-2293" y="130" width="503" height="30" as="geometry" />
        </mxCell>
        <mxCell id="gsh-S_FmZg22HxGe3ayR-47" value="&lt;font style=&quot;&quot;&gt;&lt;span style=&quot;font-size: 26px;&quot;&gt;Data Zone&lt;/span&gt;&lt;br&gt;&lt;/font&gt;" style="text;html=1;strokeColor=none;fillColor=none;align=center;verticalAlign=middle;whiteSpace=wrap;rounded=0;rotation=-40;" parent="gsh-S_FmZg22HxGe3ayR-1" vertex="1">
          <mxGeometry x="-3380" y="960" width="60" height="40" as="geometry" />
        </mxCell>
        <mxCell id="gsh-S_FmZg22HxGe3ayR-48" style="edgeStyle=orthogonalEdgeStyle;rounded=0;orthogonalLoop=1;jettySize=auto;html=1;fontSize=21;endArrow=none;endFill=0;strokeWidth=1;" parent="gsh-S_FmZg22HxGe3ayR-1" source="gsh-S_FmZg22HxGe3ayR-50" target="gsh-S_FmZg22HxGe3ayR-51" edge="1">
          <mxGeometry relative="1" as="geometry">
            <mxPoint x="-2570" y="1080" as="targetPoint" />
            <Array as="points">
              <mxPoint x="-2801" y="980" />
            </Array>
          </mxGeometry>
        </mxCell>
        <mxCell id="gsh-S_FmZg22HxGe3ayR-49" value="3569" style="edgeLabel;html=1;align=center;verticalAlign=middle;resizable=0;points=[];fontSize=14;fontColor=#000000;" parent="gsh-S_FmZg22HxGe3ayR-48" vertex="1" connectable="0">
          <mxGeometry x="0.1728" y="3" relative="1" as="geometry">
            <mxPoint x="65" y="3" as="offset" />
          </mxGeometry>
        </mxCell>
        <mxCell id="gsh-S_FmZg22HxGe3ayR-50" value="" style="verticalLabelPosition=bottom;sketch=0;aspect=fixed;html=1;verticalAlign=top;strokeColor=none;align=center;outlineConnect=0;shape=mxgraph.citrix.firewall;" parent="gsh-S_FmZg22HxGe3ayR-1" vertex="1">
          <mxGeometry x="-2839" y="813.75" width="75" height="93" as="geometry" />
        </mxCell>
        <mxCell id="gsh-S_FmZg22HxGe3ayR-51" value="AD" style="verticalLabelPosition=bottom;sketch=0;aspect=fixed;html=1;verticalAlign=top;strokeColor=none;align=center;outlineConnect=0;shape=mxgraph.citrix.database_server;fontSize=21;" parent="gsh-S_FmZg22HxGe3ayR-1" vertex="1">
          <mxGeometry x="-2669.5" y="960" width="80" height="90" as="geometry" />
        </mxCell>
        <mxCell id="gsh-S_FmZg22HxGe3ayR-52" value="Management&amp;nbsp;" style="text;html=1;strokeColor=none;fillColor=none;align=center;verticalAlign=middle;whiteSpace=wrap;rounded=0;fontSize=45;fontColor=#FF0000;" parent="gsh-S_FmZg22HxGe3ayR-1" vertex="1">
          <mxGeometry x="-2140" y="40" width="60" height="30" as="geometry" />
        </mxCell>
        <mxCell id="gsh-S_FmZg22HxGe3ayR-53" value="" style="verticalLabelPosition=bottom;sketch=0;aspect=fixed;html=1;verticalAlign=top;strokeColor=none;align=center;outlineConnect=0;shape=mxgraph.citrix.firewall;fontSize=26;" parent="gsh-S_FmZg22HxGe3ayR-1" vertex="1">
          <mxGeometry x="-2370" y="367" width="75" height="93" as="geometry" />
        </mxCell>
        <mxCell id="QtZ2xrC02WR76bmwUw8Q-0" value="" style="verticalLabelPosition=bottom;sketch=0;aspect=fixed;html=1;verticalAlign=top;strokeColor=none;align=center;outlineConnect=0;shape=mxgraph.citrix.firewall;fontSize=26;" parent="gsh-S_FmZg22HxGe3ayR-1" vertex="1">
          <mxGeometry x="-2380" y="821" width="75" height="93" as="geometry" />
        </mxCell>
        <mxCell id="1y4C-lCtitK6S9jCRPu_-0" value="" style="endArrow=none;dashed=1;html=1;dashPattern=1 3;strokeWidth=4;rounded=0;fontSize=12;fillColor=#d80073;strokeColor=#A50040;" parent="gsh-S_FmZg22HxGe3ayR-1" edge="1">
          <mxGeometry width="50" height="50" relative="1" as="geometry">
            <mxPoint x="-3430" y="1090" as="sourcePoint" />
            <mxPoint x="-2400" y="1090" as="targetPoint" />
          </mxGeometry>
        </mxCell>
        <mxCell id="1y4C-lCtitK6S9jCRPu_-8" style="edgeStyle=orthogonalEdgeStyle;rounded=0;orthogonalLoop=1;jettySize=auto;html=1;fontSize=14;fontColor=#000000;endArrow=none;endFill=0;strokeWidth=1;fillColor=#f8cecc;gradientColor=#ea6b66;strokeColor=#b85450;" parent="gsh-S_FmZg22HxGe3ayR-1" source="1y4C-lCtitK6S9jCRPu_-3" target="1y4C-lCtitK6S9jCRPu_-7" edge="1">
          <mxGeometry relative="1" as="geometry">
            <Array as="points">
              <mxPoint x="-2342" y="1180" />
            </Array>
          </mxGeometry>
        </mxCell>
        <mxCell id="1y4C-lCtitK6S9jCRPu_-3" value="" style="verticalLabelPosition=bottom;sketch=0;aspect=fixed;html=1;verticalAlign=top;strokeColor=none;align=center;outlineConnect=0;shape=mxgraph.citrix.firewall;fontSize=26;" parent="gsh-S_FmZg22HxGe3ayR-1" vertex="1">
          <mxGeometry x="-2380" y="1050" width="75" height="93" as="geometry" />
        </mxCell>
        <mxCell id="1y4C-lCtitK6S9jCRPu_-4" value="" style="verticalLabelPosition=bottom;sketch=0;aspect=fixed;html=1;verticalAlign=top;strokeColor=none;align=center;outlineConnect=0;shape=mxgraph.citrix.role_security;fillColor=#CCCCCC;gradientColor=#000000;gradientDirection=south;fontSize=14;fontColor=#000000;" parent="gsh-S_FmZg22HxGe3ayR-1" vertex="1">
          <mxGeometry x="-2320" y="1020" width="38" height="38" as="geometry" />
        </mxCell>
        <mxCell id="1y4C-lCtitK6S9jCRPu_-5" value="MANAGAMENT" style="rounded=0;whiteSpace=wrap;html=1;fontSize=14;rotation=-90;fillColor=#f8cecc;strokeColor=#b85450;gradientColor=#ea6b66;" parent="gsh-S_FmZg22HxGe3ayR-1" vertex="1">
          <mxGeometry x="-3960" y="713" width="1010" height="21" as="geometry" />
        </mxCell>
        <mxCell id="1y4C-lCtitK6S9jCRPu_-9" style="edgeStyle=orthogonalEdgeStyle;rounded=0;orthogonalLoop=1;jettySize=auto;html=1;fontSize=14;fontColor=#000000;endArrow=none;endFill=0;strokeWidth=1;fillColor=#f8cecc;gradientColor=#ea6b66;strokeColor=#b85450;" parent="gsh-S_FmZg22HxGe3ayR-1" source="1y4C-lCtitK6S9jCRPu_-7" edge="1">
          <mxGeometry relative="1" as="geometry">
            <mxPoint x="-3455" y="1180" as="targetPoint" />
            <Array as="points">
              <mxPoint x="-3455" y="1180" />
            </Array>
          </mxGeometry>
        </mxCell>
        <mxCell id="1y4C-lCtitK6S9jCRPu_-7" value="" style="verticalLabelPosition=bottom;sketch=0;aspect=fixed;html=1;verticalAlign=top;strokeColor=none;align=center;outlineConnect=0;shape=mxgraph.citrix.desktop_web;fontSize=14;fontColor=#000000;" parent="gsh-S_FmZg22HxGe3ayR-1" vertex="1">
          <mxGeometry x="-2820" y="1135" width="76.5" height="90" as="geometry" />
        </mxCell>
        <mxCell id="1y4C-lCtitK6S9jCRPu_-2" value="&lt;font style=&quot;&quot;&gt;&lt;span style=&quot;font-size: 26px;&quot;&gt;MGMT Zone&lt;/span&gt;&lt;br&gt;&lt;/font&gt;" style="text;html=1;strokeColor=none;fillColor=none;align=center;verticalAlign=middle;whiteSpace=wrap;rounded=0;rotation=-40;" parent="gsh-S_FmZg22HxGe3ayR-1" vertex="1">
          <mxGeometry x="-3390" y="1160" width="60" height="40" as="geometry" />
        </mxCell>
        <mxCell id="1y4C-lCtitK6S9jCRPu_-11" value="" style="endArrow=none;html=1;rounded=0;fontSize=14;fontColor=#000000;strokeWidth=1;fillColor=#f8cecc;gradientColor=#ea6b66;strokeColor=#b85450;" parent="gsh-S_FmZg22HxGe3ayR-1" target="gsh-S_FmZg22HxGe3ayR-10" edge="1">
          <mxGeometry width="50" height="50" relative="1" as="geometry">
            <mxPoint x="-3440" y="301" as="sourcePoint" />
            <mxPoint x="-2870" y="630" as="targetPoint" />
          </mxGeometry>
        </mxCell>
        <mxCell id="1y4C-lCtitK6S9jCRPu_-12" value="MGMT" style="edgeLabel;html=1;align=center;verticalAlign=middle;resizable=0;points=[];fontSize=14;fontColor=#000000;" parent="1y4C-lCtitK6S9jCRPu_-11" vertex="1" connectable="0">
          <mxGeometry x="0.9249" y="-4" relative="1" as="geometry">
            <mxPoint as="offset" />
          </mxGeometry>
        </mxCell>
        <mxCell id="gsh-S_FmZg22HxGe3ayR-43" value="&lt;font style=&quot;&quot;&gt;&lt;font style=&quot;font-size: 26px;&quot;&gt;DMZ 0&lt;/font&gt;&lt;br&gt;&lt;/font&gt;" style="text;html=1;strokeColor=none;fillColor=none;align=center;verticalAlign=middle;whiteSpace=wrap;rounded=0;rotation=-40;" parent="gsh-S_FmZg22HxGe3ayR-1" vertex="1">
          <mxGeometry x="-3390" y="282.63" width="60" height="35.75" as="geometry" />
        </mxCell>
      </root>
    </mxGraphModel>
  </diagram>
</mxfile>
